<svg preserveAspectRatio="none" width="100%" height="100%" overflow="visible" style="display: block;" viewBox="0 0 139.09 76.1145" fill="url(#goldGrad)" xmlns="http://www.w3.org/2000/svg">
<defs>
<linearGradient id="goldGrad" x1="0%" y1="0%" x2="100%" y2="0%">
<stop offset="0%" stop-color="#DAAF3A"/>
<stop offset="25%" stop-color="#E8C860"/>
<stop offset="50%" stop-color="#FFEBAF"/>
<stop offset="75%" stop-color="#C9A84C"/>
<stop offset="100%" stop-color="#9D7500"/>
</linearGradient>
</defs>
<g id="2dbd6fdde0">
<path id="Vector" d="M83.0433 9.36602C83.0433 9.36602 82.8942 9.36602 82.9439 9.45777C83.201 9.8821 83.3692 10.3112 83.4763 10.7977C83.4839 11.0041 83.1618 10.5683 83.1781 10.855C83.4075 11.33 83.5757 11.847 83.6559 12.3679C83.6942 12.6126 83.4075 12.1299 83.3883 12.1529C83.3081 12.689 83.6751 13.2252 83.7171 13.7537C83.7362 13.9869 83.5948 14.2554 83.5642 14.5689C83.5336 14.9063 83.5718 15.2044 83.6559 15.5303L83.4763 15.4998C83.5107 15.6412 83.6598 15.7253 83.7171 15.8629C83.7859 16.0321 83.5374 15.8132 83.5948 15.9824C83.6254 16.0741 83.6789 16.1124 83.7171 16.1926L83.4151 16.013L83.5374 16.6141C83.0472 16.8473 82.5884 16.8091 82.0637 16.7288C81.5094 16.6409 81.0344 16.38 80.548 16.1315L80.3377 16.3111L81.0612 16.4335V16.6103L80.8204 16.7326L81.4244 16.6753L81.3938 16.7938C81.6318 16.7555 81.842 16.8779 82.0637 16.9085C82.1478 16.9199 82.2511 16.8511 82.3476 16.8626C82.4928 16.8817 82.5846 17.0614 82.6687 17.0767C83.2431 17.1808 83.9732 17.134 84.5858 17.2191C84.7808 17.2458 85.6505 17.414 85.769 17.4828C85.876 17.544 85.7958 17.5555 85.769 17.6052C85.6811 17.7543 85.4813 18.0763 85.3475 18.1184V18.1757C85.5578 18.1757 85.6926 18.7539 85.6773 18.9068C85.6113 19.6007 84.605 19.8148 84.7464 20.7332C84.8276 21.2502 85.9334 21.8323 86.4151 21.8973C87.2723 22.0167 87.8735 21.5379 88.5167 21.5723C89.2248 21.6067 89.1752 22.5137 89.2593 23.0307L89.0834 23.0613C89.0605 23.2763 89.1713 23.4828 89.1484 23.6969C89.1369 23.8115 89.0337 23.7542 89.0184 23.8698C88.9993 24.0113 89.0528 24.6506 89.0222 24.6889L88.8416 24.6277C88.7307 25.0492 88.1956 25.3474 88.0264 25.7765L87.5141 28.548C87.6365 28.4869 87.6823 28.2384 87.7129 28.116C87.8047 27.7443 87.8352 27.3572 87.8735 26.9788L87.992 27.0399C88.0302 26.7102 88.1459 25.4926 88.6581 26.0441C89.1063 26.5267 89.049 27.7672 88.5969 28.246C89.7992 28.2269 89.6033 27.7366 89.9751 26.9405C90.1777 26.5038 90.4988 26.0555 90.7024 25.615C90.8132 25.3741 91.1076 24.6965 91.1152 24.4672C91.1229 24.1489 90.6135 23.6739 90.5906 23.3031L90.472 23.4828C90.472 23.2419 90.4109 22.981 90.323 22.7593C90.2236 22.5022 90.0324 22.0397 89.9024 21.794C89.8031 21.6067 89.6224 21.4691 89.5613 21.2579C89.1522 21.4959 88.639 21.1967 88.2797 21.2579C87.7397 21.342 87.2456 21.6679 86.5842 21.6182C86.2966 21.5953 85.4737 21.212 85.229 21.0438C84.8964 20.8144 84.9653 20.2209 85.1985 19.9333C85.4469 19.6275 85.8072 19.3589 85.9219 18.9068C86.0022 18.5896 85.8493 18.3095 85.9181 17.9387C86.029 17.3452 86.5116 16.9276 86.7066 16.4335C86.8595 16.0435 86.7715 15.6527 87.0965 15.3153C87.4415 14.9598 87.9385 14.7839 88.3982 15.0439C88.6352 15.1777 88.6581 15.4195 88.941 15.4653C89.8069 15.5991 90.1395 15.2197 90.8094 15.1662C91.2146 15.1356 91.6055 15.2274 91.8655 15.5571C92.3252 16.1391 92.306 16.3991 93.0744 16.8167C93.6297 17.1187 93.9518 16.9926 94.4258 17.1531C94.5405 17.1923 94.6208 17.3108 94.6743 17.3185C95.0614 17.3911 96.1709 17.1187 96.6574 17.092C99.0877 16.9543 101.192 17.9158 102.62 19.8721C103.688 21.3305 103.603 22.7555 104.01 24.3936C104.063 24.6048 104.254 24.708 104.285 24.903C104.319 25.1103 104.101 24.8647 104.044 24.9641C104.155 25.1142 104.897 25.7306 104.829 25.8376L104.587 25.8071C104.756 26.0861 105.257 26.4426 105.345 26.7408C105.502 27.2693 105.008 28.3416 104.71 28.7936L108.567 29.0956C108.544 29.2065 108.449 29.2065 108.357 29.218C107.894 29.2715 107.278 29.1071 106.906 29.1492C106.849 29.1568 106.627 29.3374 106.364 29.3374C105.713 29.3374 105.031 29.3145 104.384 29.3374C104.052 29.3527 103.676 29.4407 103.324 29.391C103.332 29.4751 103.592 29.4942 103.661 29.5018C103.821 29.5209 104.768 29.5286 104.768 29.6586C104.545 29.8115 104.121 29.7541 103.829 29.7503C101.123 29.7235 98.3566 29.6356 95.6357 29.5133L94.6322 29.628C94.8473 29.7044 95.1416 29.6012 95.3213 29.628C95.4092 29.6394 95.4628 29.7274 95.5545 29.7312C95.9301 29.7503 96.4194 29.6662 96.8371 29.6853C97.1085 29.6968 97.3885 29.7962 97.679 29.7465C97.8893 29.7656 97.8205 29.9806 97.7326 30.1106C97.2461 30.0762 96.7109 30.1794 96.2321 30.1527C95.6625 30.1183 95.0231 29.9615 94.422 29.9845L91.919 30.0494C91.7049 29.8841 92.5163 29.9271 92.5507 29.9271L93.1251 29.8076C92.5125 29.8612 91.961 29.5668 91.3446 29.628L91.7087 29.7465L91.7967 29.8688C91.5635 29.8927 91.3408 29.9768 91.1038 29.9921C89.2822 30.1259 87.4835 29.9806 85.6773 29.9271C85.0685 29.908 84.4482 29.9539 83.8356 29.9271L84.4368 30.1374L83.9235 30.2903C83.526 30.1947 83.1236 30.2673 82.7184 30.2253C82.6114 30.2138 81.8 30.0647 82.2587 29.9615C82.5425 29.9004 82.9936 29.9883 83.2889 29.9845L82.8942 29.865L79.3964 29.8038L80.2995 30.0112C80.3836 30.0227 81.777 30.0456 81.5973 30.2253C81.1377 30.3056 80.6474 30.3056 80.1772 30.2903C79.9784 30.2826 79.3658 30.2597 79.2243 30.2253C79.1058 30.1985 79.3122 30.1679 78.9175 30.1679C78.4435 30.1679 77.9685 30.1603 77.4983 30.1641L77.5251 30.0456L77.7621 30.1068L78.2485 29.9845C77.9876 29.9921 77.7239 29.973 77.4639 29.9845C76.8016 30.0074 76.1087 30.0724 75.4808 30.1106C75.0565 30.1374 74.2871 30.2368 73.9115 30.1679C73.8083 30.1488 73.7433 30.103 73.7625 29.9883C74.1113 29.8965 74.4936 29.9615 74.8376 29.9156C74.9227 29.9042 75.003 29.9309 75.0297 29.8076C74.6388 29.7885 74.2336 29.6624 73.8542 29.628C73.3878 29.5821 72.9664 29.628 72.5305 29.628C71.3168 29.6242 70.1193 29.605 68.9094 29.54L68.4583 29.6242C68.9552 29.5745 69.4455 29.7044 69.9358 29.7465C70.2455 29.7732 71.6045 29.7847 71.7421 29.9309C71.788 29.9768 71.8224 30.1565 71.895 30.2291C71.6045 30.1985 71.2251 30.2979 70.9613 30.2941C70.6774 30.2903 70.3028 30.1832 70.0084 30.1909C69.3385 30.2062 68.4353 30.382 67.7616 30.2941C67.6469 30.2788 67.428 30.1221 67.0993 30.1412C64.753 30.2597 62.078 30.5053 59.7394 30.4126C59.0771 30.3859 58.0898 30.3362 57.5001 30.2482C57.2899 30.2176 56.6276 30.4776 56.5741 30.1106C56.7356 30.1221 56.8847 30.0074 57.0338 29.9921C57.3931 29.9539 58.0822 29.9806 58.473 29.9883C59.208 29.9959 60.1035 30.1832 60.7648 30.1718C61.4807 30.1641 62.4641 29.908 63.2411 29.865C63.7887 29.8344 64.4586 29.9348 64.991 29.865C65.0789 29.8535 65.1783 29.8191 65.0789 29.7465C64.4013 29.8115 63.6664 29.5439 62.9964 29.5592C62.6982 29.5668 62.4182 29.7197 62.0933 29.7465C59.9343 29.9195 57.3052 29.7847 55.1013 29.8C54.9666 29.8 54.2861 29.7618 54.4314 29.563C54.5613 29.3871 56.0733 29.3948 56.3638 29.3833C56.4364 29.3833 56.5893 29.4292 56.5741 29.3221C56.3141 29.3489 56.0771 29.2524 55.82 29.2562C55.648 29.2562 55.4989 29.3221 55.3422 29.326C53.8226 29.3336 52.2992 29.1759 50.7872 29.0804C50.7681 28.9351 50.7872 28.9848 50.8714 28.9542C51.2966 28.7936 52.0316 28.9657 52.5018 28.8969C52.5601 28.8892 52.7703 28.8013 52.778 28.721L50.577 28.6589L49.2801 28.4792C50.0523 28.3951 50.8255 28.418 51.6025 28.418C53.275 28.418 54.8098 28.5557 56.4823 28.3607C56.6352 28.3416 56.7967 28.3684 56.9573 28.3531C57.4963 28.2957 57.5776 27.7978 57.9598 27.4881C58.2542 27.2464 58.7598 27.0743 59.1344 27.0361C59.6935 26.9826 60.4322 27.2502 60.7457 26.6567C61.1022 25.9753 60.8652 23.1034 60.7266 22.2499C60.6425 21.7214 60.4819 21.2158 60.3405 20.7064C60.2908 20.6376 60.264 20.6223 60.1876 20.672C60.0576 20.76 59.7814 21.4232 59.617 21.6105C59.5559 21.6794 59.4756 21.7864 59.3762 21.7902V21.6105L58.3507 22.7555V22.3952C58.2007 22.6714 57.9025 22.767 57.6578 22.939L57.8069 22.4563C57.5737 22.6332 57.1981 23.2534 56.9611 23.3604C56.9344 23.3719 56.8617 23.3757 56.8732 23.3299L57.0223 22.9963C56.8503 23.0575 56.3026 23.7351 56.2071 23.6586C56.2338 23.5822 56.4288 23.3299 56.2682 23.2993C56.1153 23.5631 55.6786 23.8268 55.3613 23.8431C55.8554 24.3668 55.5448 25.1295 55.8391 25.7459C55.9586 25.9944 56.4632 26.2859 56.2376 26.5496L56.0236 26.4961L56.2032 26.8555C55.7015 26.7981 56.4823 27.3763 56.3829 27.4604H55.9624L56.3218 27.794C56.0236 28.0654 55.7474 28.0119 55.3574 28.0042L55.4186 28.1849C54.6913 28.269 54.2784 28.0386 53.7576 27.5837C52.9118 26.8478 50.8952 24.1069 50.7758 23.0269C50.5502 21.0094 51.8099 20.2286 52.7551 18.6737C53.383 17.6434 53.9602 16.6218 53.792 15.366C53.7308 14.8986 53.1029 15.0745 52.7627 15.0362L52.7321 15.2121C51.806 14.9636 51.354 15.99 50.4738 15.9394L50.5349 16.12C50.382 16.3264 48.8051 15.8515 48.5069 15.8247C47.6305 15.7406 46.7695 16.8893 45.4372 16.7861C44.9546 16.7479 44.5417 16.4144 44.1585 16.3723C44.0323 16.357 43.9367 16.4182 43.8259 16.4105C43.4121 16.3723 42.4325 15.4156 42.4133 14.998C42.4133 14.9139 42.5357 14.546 42.5854 14.4733C42.8004 14.1598 43.3471 13.7346 43.6271 13.3437C43.8909 12.9805 44.6334 11.8012 44.7749 11.4179C45.0272 10.748 44.5876 10.5148 44.7137 9.97098C44.8017 9.59157 45.5251 8.35106 45.7583 7.94106C45.9313 7.63523 46.3556 7.18318 46.4206 6.84964C46.4703 6.58587 46.3212 6.24086 46.3098 5.96179C46.2715 5.15422 46.5315 4.85126 47.3047 4.66012L47.427 5.20391C47.6 5.00799 47.4843 4.71364 47.5302 4.46515C47.7491 3.29728 49.4712 3.74837 50.0256 4.40685L50.3018 4.34187C51.6139 3.77131 52.9844 3.30875 54.2899 2.7229C57.5202 1.27882 59.0121 -0.742498 62.9658 0.276286C64.4281 0.650923 65.3847 1.04563 66.9616 1.16414C69.3423 1.34381 71.6083 0.793324 73.9383 1.24442C76.2693 1.69647 79.8752 5.05865 81.497 6.89265C81.7617 7.19083 83.1389 9.08218 83.0204 9.35455L83.0433 9.36602ZM62.6753 0.995934L61.8295 0.75414C61.9289 0.972997 61.7492 0.873603 61.7225 0.89654C61.6919 0.919477 61.6842 0.992111 61.646 1.01887C61.5418 1.09533 61.3927 1.11062 61.3469 1.23677C61.5456 1.29794 61.7072 1.13738 61.8639 1.12209C62.12 1.0915 62.5224 1.21766 62.6753 0.999757V0.995934ZM65.8712 2.25938C65.6944 2.095 65.4879 2.2288 65.3694 2.19439C65.27 2.16381 65.2433 1.97171 65.1477 1.92584C65.0024 1.85703 64.5542 1.87996 64.3134 1.79586C64.1136 1.72705 63.9722 1.56267 63.7734 1.49003C63.157 1.27118 62.2844 1.21384 61.7683 1.685C61.7033 1.94877 62.4373 1.62766 62.5491 1.86467L62.0665 2.13705C62.3418 2.2135 62.8473 1.90672 62.9849 2.18292L63.092 2.13705L62.9735 2.37789L63.2143 2.25938L63.157 2.50022C63.5593 2.26702 63.9072 2.28614 64.3019 2.5308L64.5427 2.79935C64.3248 2.79171 64.0639 2.68849 64.0066 2.97138C64.2407 3.13194 64.2713 3.25905 64.6039 3.2514L64.9059 3.7025C64.8486 3.75602 64.2331 3.39667 64.1261 3.36991C64.0066 3.33933 63.9645 3.31639 63.8843 3.43108C64.0945 3.6528 64.4357 3.65662 64.6689 3.84872C65.0636 4.16984 65.3121 4.93536 65.9056 5.14657C66.1197 5.15804 65.7985 4.89713 65.7708 4.85508C65.6447 4.65247 65.637 4.46897 65.3312 4.33422C65.3197 4.17748 65.3541 4.27305 65.4382 4.28835C65.6026 4.31893 65.7173 4.39539 65.875 4.42692C65.9171 4.38392 65.6485 3.9787 65.6026 3.88313C65.4765 3.60693 65.3809 3.24758 65.1477 3.00961C65.0598 2.91786 64.8409 2.90639 64.7836 2.81464C64.6957 2.68085 64.8371 2.53845 64.7339 2.40082C64.6651 2.30908 64.1719 2.14852 64.1834 2.10264L64.3325 1.94495L65.3197 2.33966L65.8712 2.25173V2.25938ZM59.2997 1.53591C59.2347 1.48621 58.5419 1.70411 58.5151 1.89525C58.6221 1.89525 59.4412 1.65059 59.2997 1.53591ZM73.0352 1.79204C72.802 1.67735 71.8797 1.97936 71.5777 2.03001C70.8886 2.14469 70.1766 2.13323 69.5296 2.43523L69.4914 2.68085C69.5487 2.74201 70.276 2.56138 70.3372 2.79935L70.1575 2.82994L70.3372 3.04019C70.0658 2.92551 69.4838 2.98285 69.4341 3.34315C69.6023 3.13576 70.751 3.34315 70.578 3.58399C70.2378 3.78278 69.4799 3.32404 69.2467 3.67574C69.2085 3.7369 69.2467 3.80954 69.2391 3.81718C69.197 3.86019 68.8138 3.93282 68.8291 3.9787L69.6137 3.94811L69.4914 3.76749L70.6621 3.82961L71.7841 4.43075C72.0288 4.15455 70.9192 3.82578 70.8198 3.64515C71.3359 3.64515 71.8262 3.82578 72.327 3.94429C72.1817 3.71779 71.853 3.61075 71.6045 3.52282C71.4659 3.38138 71.9256 3.36991 71.9753 3.37756C72.607 3.45019 72.6108 3.99781 73.1728 3.88695C72.9893 4.33422 72.5573 4.18131 72.1473 4.18895C72.4464 4.43839 72.8631 4.6907 73.2655 4.72893C73.3305 4.73657 73.491 4.77098 73.4757 4.67158L73.1881 4.62571L72.6911 4.25012C73.3267 4.2807 73.9115 4.43457 74.4401 4.79392C74.4515 4.69834 74.398 4.48809 74.3063 4.45368C74.268 4.43839 74.1916 4.49191 74.138 4.46897C73.9383 4.38009 73.7319 4.25776 73.5331 4.16219C73.7892 3.99017 74.0998 4.08956 74.3789 4.13161C74.3101 3.92135 74.1036 3.80571 73.9115 3.72161L73.1766 3.67956C73.4299 3.41961 74.053 3.33933 74.3827 3.4349C74.5471 3.4846 74.6732 3.69867 74.8606 3.70632L74.5127 3.36227L73.5369 3.16252C73.5063 3.02872 73.556 3.06313 73.6134 3.0249C73.9727 2.76113 74.3636 3.04019 74.6847 3.22464L74.3254 2.80318L74.6847 2.92168V2.80318C74.2718 2.59579 74.0033 2.54991 73.5407 2.61968C73.5102 2.38553 73.7739 2.47728 73.8848 2.4811C73.9421 2.4811 74.0769 2.54609 74.0224 2.40847C73.9115 2.1294 72.9625 2.25173 72.6988 2.07588C72.7446 1.96789 73.0505 2.01089 73.1537 2.01089C73.2578 2.01089 73.3305 2.03383 73.4222 2.07588C73.4643 1.88761 73.2378 1.96789 73.1002 1.89525C73.0657 1.87614 73.0619 1.79586 73.0466 1.78822H73.0352V1.79204ZM69.0661 2.56138C69.0088 2.2632 68.5844 2.24026 68.3436 2.25938C68.313 2.42758 68.378 2.3626 68.4736 2.397C68.5577 2.42758 69.0394 2.58432 69.0623 2.56138H69.0661ZM56.7662 2.44287C56.6973 2.40465 56.1115 2.75348 56.2224 2.86434C56.4211 2.82611 56.532 2.63497 56.7662 2.68467V2.44287ZM68.9476 3.10518C68.8176 2.84523 68.5386 2.84905 68.2863 2.86434C68.4277 3.04401 68.7335 3.11665 68.9476 3.10518ZM57.2478 3.10518C57.0949 2.84141 56.5626 3.17017 56.3753 3.28963C56.2873 3.34697 56.1306 3.40049 56.1612 3.52665C56.5282 3.38138 56.835 3.13576 57.2478 3.10518ZM63.8804 3.94811C63.911 3.89459 63.7772 3.84872 63.7314 3.82578C63.5823 3.74837 62.9161 3.44254 62.8014 3.4349C62.6944 3.42725 62.6218 3.48077 62.553 3.55723C62.5147 3.71779 62.9085 3.69485 63.0308 3.7369C63.2449 3.80954 63.4179 3.96341 63.6205 4.05898L63.8766 3.94429L63.8804 3.94811ZM55.0163 3.46548C54.9513 3.40432 54.309 3.81336 54.202 3.88695C54.1093 3.94811 53.9717 3.99017 53.9908 4.12779L54.8748 3.65662L55.0124 3.46548H55.0163ZM58.3966 3.82961L59.1191 3.55723C59.1268 3.33168 58.4042 3.62986 58.3966 3.82961ZM54.741 4.45751C54.8213 4.40685 55.4683 3.92135 55.3804 3.82578C55.2428 3.95958 55.0124 3.86019 54.9016 3.91371C54.7907 3.96723 54.5957 4.24247 54.4428 4.30364C54.3434 4.42214 54.5996 4.55308 54.6798 4.54925C54.7181 4.53396 54.7143 4.46897 54.7372 4.45368H54.741V4.45751ZM57.5508 3.89077C57.2402 3.93665 56.8426 4.1125 56.6467 4.37245C56.9573 4.35333 57.3052 4.08191 57.5508 3.89077ZM56.4059 4.00928C56.1268 4.03986 55.8391 4.0628 55.583 4.17748C55.4836 4.22336 54.8595 4.6907 54.9589 4.79009C55.281 4.74422 55.1319 4.65629 55.1931 4.57984C55.2963 4.44986 55.6097 4.26159 55.7741 4.25394C55.8707 4.25394 55.9624 4.31893 56.058 4.29981C56.1421 4.28452 56.36 4.10485 56.402 4.00928H56.4059ZM64.8448 4.79009C64.8448 4.79009 64.8983 4.641 64.8792 4.54925C64.7798 4.09338 64.3593 3.97487 63.9416 4.00928L64.5466 4.45751L65.0865 5.21538C64.948 5.34918 64.623 4.9927 64.4625 4.90478C64.386 4.86273 63.6664 4.53779 63.7008 4.64482C63.8575 5.00035 64.2407 5.01182 64.5045 5.16569C64.6077 5.22685 64.7568 5.44093 64.8218 5.4524C64.8983 5.46387 65.0598 5.29184 65.1859 5.29184C65.2968 5.29184 65.3274 5.42946 65.4459 5.39888C65.3809 5.25743 65.3541 5.09305 65.2395 4.97359C65.1095 4.83979 64.8562 4.81303 64.8409 4.79392H64.8448V4.79009ZM70.816 4.55308L69.9119 4.18895C69.7514 4.33422 70.6507 4.64482 70.7386 4.66012C70.8542 4.67923 70.8542 4.59513 70.816 4.55308ZM77.2068 5.03571C77.2336 4.92007 77.1457 4.89331 77.0883 4.8245C76.8475 4.54161 76.5139 4.22718 76.124 4.19278L76.7557 4.61424L77.2068 5.03571ZM63.2793 4.67158C63.2602 4.53779 62.488 4.09338 62.4956 4.34187C62.4956 4.42214 63.157 4.61807 63.2793 4.67158ZM76.5455 5.09687C76.6258 5.00799 75.9902 4.54925 75.9023 4.50338C75.8144 4.45751 75.7455 4.4145 75.6414 4.43457L76.5455 5.09687ZM54.0519 7.26346L54.3931 7.1182C54.4161 6.5744 54.5766 5.8624 54.4505 5.33007C54.3664 4.98506 53.7538 4.52632 53.3906 4.57601C53.2635 4.59131 52.5563 4.94683 52.4636 5.03953C52.2418 5.25743 52.0622 5.82417 51.9475 6.11853C52.2342 5.96944 52.5247 5.25361 52.7627 5.15422C52.9003 5.09687 52.908 5.38741 52.8506 5.4524C53.0915 5.41035 53.2597 5.46004 53.4518 5.27272L53.3906 5.57473C53.6391 5.65214 53.5741 5.32242 53.8111 5.33389L53.6926 5.57473C54.1322 5.57473 54.3511 5.64832 54.1743 6.11853L54.2937 6.05736C54.1705 6.46354 54.2746 6.88118 54.0519 7.26346ZM72.5038 5.27655C72.5573 4.98888 72.2888 5.06247 72.1206 4.96594C71.8912 4.83597 71.7344 4.53396 71.42 4.61424L71.4582 4.79774C71.8338 4.95447 72.0823 5.21538 72.5076 5.27655H72.5038ZM56.1039 4.73275C55.7015 4.53014 55.3995 4.97359 55.2007 5.27272L56.1039 4.73275ZM70.276 5.09305C70.0734 4.78627 69.6749 4.62571 69.3117 4.67158L70.276 5.09305ZM60.9264 4.91242C60.7457 4.61042 60.4131 4.77862 60.1417 4.79392C60.2908 5.02711 60.6884 4.87037 60.9264 4.91242ZM71.4468 5.19245C71.3092 5.01564 71.2824 4.85508 71.0263 4.79392C70.9766 4.78627 70.9804 5.08541 70.816 5.03571C70.8007 5.11217 70.8313 5.08923 70.8886 5.11217C71.0377 5.16186 71.2442 5.21921 71.4009 5.26508C71.4965 5.29184 71.6733 5.30331 71.443 5.19627H71.4468V5.19245ZM62.8588 5.33389C62.6868 5.00417 62.2806 4.98888 61.9556 4.97359C62.0015 5.06629 62.2194 5.14657 62.3188 5.1848C62.4803 5.24596 62.6906 5.28419 62.8626 5.33771L62.8588 5.33389ZM64.3631 6.30298C64.2943 5.93885 64.0792 5.65596 63.7314 5.51739C63.4867 5.72477 63.8269 5.74389 63.9454 5.8471C64.1022 5.9809 64.1681 6.20263 64.3631 6.30298ZM63.0232 6.12999C62.6868 5.87386 62.5491 5.59767 62.0703 5.57473C62.0359 5.7286 62.1124 5.68272 62.1812 5.73242C62.4526 5.91974 62.7518 6.0803 63.0041 6.29915L63.0193 6.12999H63.0232ZM73.0237 5.90445C72.8861 5.80123 72.6873 5.63207 72.5076 5.7286L73.4108 6.36032L73.0237 5.90445ZM65.5109 6.24086C65.4765 5.93885 65.1974 5.75536 64.9097 5.75918C64.7912 5.87004 65.4306 6.22174 65.5109 6.24086ZM70.5742 6.36032C70.4863 6.15293 70.2302 5.86622 70.0123 5.80123C69.8546 5.75536 69.6749 5.93885 69.4876 5.87769C69.4723 6.03442 69.4876 5.97326 69.5793 6.00002C69.7361 6.04589 69.9243 6.01913 70.0925 6.08794C70.1919 6.12999 70.5245 6.40619 70.5742 6.36032ZM71.5854 6.19116C71.5271 6.10323 70.9689 5.7286 70.816 5.75918L71.5079 6.36032C71.6236 6.41002 71.6236 6.24946 71.5854 6.19116ZM72.7446 6.60116C72.8211 6.50941 72.3079 5.96561 72.1435 6.00002C72.0441 6.09559 72.6758 6.5247 72.7446 6.60116ZM65.3274 7.02645C65.2127 6.65468 65.1018 6.21792 64.6651 6.12235C64.5466 6.55146 65.0751 6.7426 65.3274 7.02645ZM70.1919 6.6241C70.0696 6.49794 69.7896 6.32974 69.6099 6.30298L70.2455 6.90412C70.4519 6.93088 70.2302 6.66232 70.1919 6.6241ZM63.437 6.6241C63.3452 6.54764 63.2028 6.52852 63.1264 6.42149C62.9964 6.36414 63.069 6.59351 63.0729 6.60116C63.1646 6.72349 63.3452 6.78848 63.4599 6.93088C63.6358 7.14878 63.6664 7.48997 63.9416 7.62377C63.8996 7.27493 63.7084 6.84582 63.437 6.62027V6.6241ZM64.5848 6.80759C64.4892 6.75025 64.3898 6.73878 64.3096 6.68908C64.2713 6.66615 63.8078 6.18734 63.9263 6.52852C64.0754 6.96528 65.2203 7.17936 65.4191 7.74992L65.8712 7.98693C65.9591 7.90665 65.3656 7.30934 65.27 7.23288C65.0598 7.06468 64.7989 6.9347 64.5848 6.80377V6.80759ZM74.6771 7.14496C74.7497 7.06085 74.1801 6.55911 74.0845 6.50176C73.9995 6.45589 73.9421 6.39855 73.8351 6.42149L74.6771 7.14496ZM66.5325 7.32463C66.4714 6.94999 66.1235 6.57822 65.7479 6.48265C65.6447 6.58587 66.4714 7.20612 66.5325 7.32463ZM47.06 7.44696L47.362 7.17554L47.7223 6.60116C47.4385 6.81524 47.1097 7.06468 47.06 7.44314V7.44696ZM66.112 8.95602C66.07 8.67313 65.8674 8.4581 65.6256 8.32812C65.5644 8.29372 65.4803 8.3587 65.4191 8.29754C65.2356 8.11022 65.0865 7.58554 64.7874 7.41638L64.1213 7.02645C64.1413 7.43167 64.5122 7.31316 64.7262 7.53966C65.0254 8.16374 65.5568 8.57278 66.112 8.95602ZM63.3185 7.2864C63.2296 7.20612 63.0958 7.17172 63.0079 7.08379C62.9085 7.19465 63.1493 7.31316 63.2181 7.41638C63.3529 7.6123 63.5249 7.94106 63.6205 8.15992C63.6817 8.29754 63.6205 8.59572 63.8804 8.5919C63.7772 8.12169 63.6931 7.63141 63.3185 7.2864ZM46.3327 9.37749C46.2639 9.2198 46.2409 8.97514 46.2754 8.80693C46.3098 8.63777 46.4703 8.60719 46.5047 8.4925C46.5468 8.35106 46.5047 8.16374 46.543 7.98693C46.585 7.79197 47.0256 7.25199 46.7886 7.14878C46.6691 7.09526 46.6844 7.3705 46.6309 7.47467C46.5468 7.63906 46.3098 7.84931 46.1913 8.05957C46.0957 8.23255 45.9734 8.58043 45.9112 8.78017C45.8615 8.78017 45.7965 8.7343 45.7621 8.74194C45.6895 8.75341 45.3455 9.52658 45.3149 9.65656C45.2231 10.0857 45.376 10.5148 45.376 10.92C45.376 11.4103 44.5646 12.7808 44.2741 13.2596C44.04 13.6428 43.2859 14.1168 43.7112 14.5077L43.9826 14.0863C44.1508 14.6645 44.6296 15.1242 44.2856 15.775C44.6679 15.6871 44.4997 15.1471 44.8284 15.0515L44.6449 14.6109C44.8437 14.3663 44.9469 14.5421 45.0425 14.546C45.139 14.5498 45.4678 14.3663 45.4945 14.3892C45.4296 14.5727 45.3149 14.6989 45.2384 14.8948C45.1849 15.0286 45.3034 15.1624 45.0731 15.1739V15.2312C45.2843 15.193 45.2193 15.6144 45.2575 15.6527C45.7583 15.7406 45.9237 15.58 46.2601 15.2694C46.283 15.2465 46.2601 15.1662 46.3212 15.1127C46.4856 14.9789 46.7303 15.0553 46.7503 15.0439C46.7695 15.0324 47.0141 14.7725 47.0676 14.7256C47.1594 14.6492 47.4193 14.5307 47.4499 14.4504C47.4805 14.3816 47.3811 14.2019 47.5417 14.0863H47.2397C47.19 13.9639 47.4308 13.9066 47.3008 13.8148C47.1364 13.6963 45.8424 13.7995 46.52 13.2825C46.543 13.2672 46.6079 13.2978 46.6232 13.2825C46.7542 13.1716 46.8268 12.9308 46.8192 12.7578L46.9988 12.8763C46.9988 12.7081 46.9377 12.5973 47.1212 12.5476L46.7618 12L46.6385 12.0076C46.455 12.1911 46.218 12.559 45.9734 12.5743L46.0345 12.6928L45.613 12.754V12.5132L45.7927 12.5743C45.8424 12.3564 45.8806 12.2637 45.6742 12.1223L45.9122 12.0305L45.7927 11.5517L46.0957 11.6741C46.0536 11.4332 46.3021 11.2344 46.0804 11.0232C45.9886 10.9353 45.7965 11.0156 45.8539 10.7671L45.7354 10.8283C45.7086 10.79 45.7507 10.1659 45.7201 10.013C45.7124 9.98245 45.613 10.0054 45.6054 9.89453C45.5863 9.60686 45.7851 9.15099 46.1148 9.19304C46.1836 9.20068 46.176 9.42719 46.3327 9.37749ZM71.7803 7.68875C71.7421 7.42402 71.4621 7.13731 71.1792 7.14496L71.7803 7.68875ZM66.8967 8.41222C66.7399 7.97164 66.5249 7.48232 65.9935 7.44696L66.8967 8.41222ZM48.1428 7.99076L47.4537 8.53838L47.3582 8.77635L48.1428 7.99076ZM62.855 8.0481C62.4918 8.08728 63.0155 8.52309 63.0652 8.5919C63.2143 8.80693 63.3376 9.04777 63.4867 9.26185C63.5364 9.33544 63.4867 9.41189 63.6434 9.37367C63.5479 8.84134 63.1111 8.50015 62.8588 8.0481H62.855ZM47.4193 8.17139L47.2397 8.21344C47.2053 8.53838 46.7771 8.70372 46.6959 9.07453C46.8192 9.19686 47.4958 8.23637 47.4193 8.17139ZM65.2089 8.41222L64.7262 8.17139C64.6192 8.28607 65.2318 8.78782 65.3006 8.89486C65.4038 8.74577 65.1248 8.58425 65.0904 8.50397L65.2089 8.41605V8.41222ZM51.0979 8.65306L50.0141 8.47339C49.9873 8.63013 50.037 8.58043 50.145 8.61101C50.3323 8.66071 50.684 8.69607 50.8914 8.71518C50.9564 8.71518 51.117 8.76106 51.1017 8.65689L51.0979 8.65306ZM62.9773 9.37749C63.069 9.22362 62.6218 8.46192 62.4956 8.5919L62.9773 9.37749ZM65.9935 10.4603C66.0012 10.143 65.7441 9.99774 65.6064 9.79418C65.335 9.39278 65.1706 9.04777 64.6689 8.83369C64.6804 9.19686 64.968 9.21597 65.1554 9.40425C65.4153 9.66038 65.6409 10.2233 65.9973 10.4603H65.9935ZM47.297 9.19686C47.1326 9.15863 46.6844 9.35073 46.692 9.5304L46.8077 9.56481L46.8153 9.67949L46.5124 9.85917C46.6079 9.87828 47.3161 9.61833 47.2358 9.56098L47.0562 9.5304L47.297 9.19686ZM50.9182 9.73683C50.7643 9.30486 50.1565 9.30486 49.7732 9.19304V9.37367C50.2482 9.28956 50.5235 9.5801 50.9182 9.73301V9.73683ZM51.7019 9.55716C51.7831 9.45777 51.0138 9.23127 50.9182 9.25803C51.0558 9.5304 51.3922 9.37749 51.4954 9.62215L51.698 9.55716H51.7019ZM66.5937 10.3418C66.6214 10.1621 65.9553 9.22362 65.81 9.37749L65.9018 9.67567L66.5937 10.338V10.3418ZM63.0958 10.5224C63.1226 10.1698 62.8129 9.59539 62.4335 9.55716L63.0958 10.5224ZM64.7645 9.82094C64.6957 9.74448 64.3134 9.46924 64.4319 9.75977C64.4778 9.87063 64.6651 9.9901 64.7492 10.1048C64.8792 10.2845 64.8753 10.5033 65.1439 10.5836C65.1859 10.5377 64.8371 9.90217 64.7606 9.82094H64.7645ZM51.0979 10.2806C51.1284 10.1507 51.0252 10.1468 50.9602 10.0857C50.707 9.85534 50.4317 9.67567 50.0724 9.73683C50.1144 9.90217 50.3973 9.85152 50.4891 9.8907C50.7031 9.98627 50.8952 10.1621 51.0979 10.2768V10.2806ZM52.4024 10.0627C52.2036 9.87828 51.8481 10.0245 51.5986 9.80947L51.3999 9.95187L51.8748 10.078L52.1539 10.2806L52.2113 10.101C52.4139 10.2883 52.7054 10.4565 52.7245 10.7633C53.0112 10.6562 52.5324 10.1851 52.3986 10.0627H52.4024ZM51.9437 10.8856L51.2202 10.403V10.7021L51.3693 10.5836C51.5451 10.7633 51.6866 10.9429 51.9437 11.0041V10.8856ZM52.6671 11.3682C52.6748 11.1924 52.5716 11.0117 52.4597 10.8818C52.3833 10.79 51.9169 10.3303 51.8251 10.403C51.9016 10.8818 52.3489 11.0653 52.6671 11.3682ZM47.6458 11.4141C47.7643 11.2268 47.7261 11.0232 47.6611 10.8244L47.5417 11.2153L46.9377 11.3644L47.1785 12.0879L47.3582 12.0267L47.2397 11.4867L47.6497 11.4103H47.6458V11.4141ZM65.0292 11.6091C65.0216 11.3988 64.86 11.135 64.7377 10.9659C64.6842 10.8894 64.6765 10.7977 64.5466 10.8283C64.4969 10.8779 64.8944 11.5517 65.0292 11.6129V11.6091ZM66.0394 10.8359C66.005 10.8168 65.7364 10.7747 65.7517 10.8818C65.9935 10.8397 66.284 11.4982 66.3223 11.4867C66.4714 11.4332 66.3605 11.3606 66.3299 11.3032C66.2955 11.2383 66.0661 10.8512 66.0394 10.8397V10.8359ZM51.7602 11.4256C51.741 11.2879 51.1437 10.8971 51.0979 10.9429C51.1437 11.3109 51.4457 11.3912 51.7602 11.4256ZM66.7781 13.1181C66.6749 12.8496 66.5134 12.3335 66.1732 12.3335C66.1082 12.3832 67.1184 13.4775 67.0802 13.6581C67.1948 13.6696 67.1298 13.5358 67.1107 13.4775C67.0649 13.3437 66.9655 13.2099 66.9578 13.057L66.7781 13.1181ZM75.6414 14.7457C75.5879 14.3625 74.9877 13.9181 74.6235 14.1168C74.0692 14.4198 74.0339 15.2197 74.0769 15.7712H74.2566C74.2718 15.5265 74.2298 15.2732 74.2718 15.0324C74.3139 14.7916 74.4898 14.2745 74.7994 14.3242L74.6809 14.5651H74.9839L75.0718 14.2631L75.6452 14.7457H75.6414ZM66.7781 14.9865C66.6635 14.7457 66.6979 14.1598 66.4178 14.0824C66.4828 14.3701 66.5478 14.7916 66.7781 14.9865ZM79.9249 16.5529C80.4256 16.25 80.5365 14.7142 79.9707 14.4886C79.6028 14.3433 79.2473 14.4771 78.9443 14.6836C78.7799 14.7992 78.3441 15.2427 78.1788 15.3191C78.1138 15.3468 77.6627 15.1356 77.5136 15.3812L78.1138 15.473L77.7544 15.7138L78.3785 15.645C78.7685 15.2121 79.0714 14.588 79.7442 14.718C79.8905 14.8222 79.7289 15.0401 79.7442 15.0515L80.1045 14.9904C80.1428 15.0286 80.1045 15.3382 80.1198 15.3851C80.1275 15.4233 80.223 15.4118 80.2307 15.4501C80.2613 15.6641 79.9554 16.2997 79.9287 16.5568H79.9249V16.5529ZM43.5621 14.8642L42.8998 14.7419C42.961 15.0553 43.2094 15.0936 43.478 14.9904C43.5583 14.9598 43.5812 15.0095 43.5621 14.8642ZM76.6678 16.1315C76.706 15.7673 76.8016 15.9594 76.9086 15.9164C76.9622 15.8973 77.1036 15.7444 77.0883 15.6794L76.9698 15.5877C77.0616 15.7865 76.4757 15.9709 76.3228 15.9977C76.189 16.0206 76.0017 16.0512 75.9443 15.8897L76.3648 15.7368L76.2425 15.6718L76.3075 15.4042C76.0628 15.5074 75.8679 15.5265 75.6452 15.7062L75.9596 15.235C76.3037 15.2924 76.254 15.0439 76.5216 14.9215L76.5531 15.1012L76.9392 14.9751C76.9889 14.9827 76.9354 15.1777 77.1227 15.0401L77.0921 15.1624L78.0565 14.9827C77.2451 14.8642 76.4986 14.6071 75.7064 14.9521C74.915 15.2962 73.988 16.4029 73.9001 17.3032C73.8695 17.5975 73.9498 17.9769 73.8886 18.256C73.8313 18.5207 73.5216 18.7004 73.4069 18.9183C73.2187 19.2824 73.1919 19.8301 73.4452 20.1703C73.6172 20.4006 73.7242 20.263 73.8542 20.3433C73.9842 20.4236 74.0845 20.6644 74.3789 20.7991C75.347 21.2388 76.2158 20.4771 77.0883 21.1088C76.8857 21.6755 76.4604 22.1811 76.426 22.8205L76.2463 22.7593L76.1546 23.6663L75.9443 23.5439L75.7608 24.8724L75.6108 24.8303L75.5305 24.9068V26.4006C75.1903 26.4655 75.2973 26.7178 75.2056 26.994C75.1444 27.1661 75.0412 27.3228 74.9915 27.5034L74.4362 28.246L76.5684 28.1352C76.794 28.4448 76.9889 28.916 77.4486 28.851C77.3989 28.6245 77.1304 28.5748 77.0348 28.3913C76.6907 27.7405 76.9431 26.4311 77.3645 25.8376C77.6245 25.4697 78.3518 24.9871 78.5391 24.6621C78.7417 24.3133 78.2944 23.8698 78.1558 23.5286C78.0565 23.2878 77.9723 23.0193 77.9915 22.7555L77.873 22.8166C77.7965 22.7402 77.7774 21.9661 77.7124 21.8055C77.678 21.7252 77.571 21.7099 77.5213 21.6335C77.376 21.4041 77.2336 20.91 77.073 20.8144C76.2272 20.3165 74.9112 21.0744 74.1151 20.3968C74.0033 20.305 73.946 20.1703 73.8389 20.0709C73.7548 19.9944 73.6287 19.9868 73.5637 19.9256C73.081 19.4965 74.0148 18.5628 74.1113 18.1413C74.1381 18.019 74.0578 17.8164 74.0731 17.6587C74.096 17.4752 74.2413 17.3758 74.1457 17.1264L74.3215 17.027L74.3827 17.3299L74.5662 17.1111L74.505 16.6065L74.8644 17.027L75.1062 16.2423C75.2744 16.3303 75.0565 16.6562 75.1368 16.7861C75.3508 16.4717 75.4846 15.9203 75.952 15.9442L75.649 16.2729L75.8067 16.4182C76.0781 16.2959 76.3687 16.013 76.6716 16.1238C76.664 16.1315 76.6907 16.2003 76.6563 16.227C76.599 16.2767 76.4451 16.2347 76.4298 16.3647L77.0004 16.185L76.9736 16.487C77.1686 16.2844 77.333 16.4488 77.5748 16.4258C77.5213 16.2844 77.333 16.2538 77.2145 16.3073L77.3951 16.0053C77.3683 15.9824 76.8589 16.2844 76.8207 16.0053C76.7825 16.0627 76.7137 16.0894 76.6716 16.1238V16.1315H76.6678ZM87.8658 15.4883C87.9041 15.5189 87.9346 15.645 87.9729 15.6488C88.1841 15.515 87.9117 15.2847 87.732 15.2809C87.3689 15.2809 87.1194 15.6756 87.1577 16.0091H87.3383C87.2991 15.6947 87.5103 15.1968 87.862 15.4845H87.8658V15.4883ZM47.3582 15.4692L47.06 15.4998L45.9122 16.25C46.4512 16.2729 47.0409 15.8897 47.3582 15.4692ZM89.8107 16.3723C89.7486 16.5252 89.6951 16.6485 89.5689 16.7632L89.6301 16.8855L88.9295 17.0346L88.876 16.9161C88.5358 17.2726 88.034 17.2497 87.6976 17.5172C88.0302 17.5478 88.3561 17.4064 88.6428 17.2573C88.6734 17.242 88.6811 17.1378 88.7613 17.1073C88.9181 17.0499 89.1943 17.1073 89.3548 16.9773C89.4733 17.0805 89.3778 17.069 89.2975 17.1034C89.0643 17.2 88.8072 17.2229 88.5817 17.3529C88.509 17.3949 88.3829 17.4523 88.5664 17.4599C88.7384 17.3376 88.9725 17.372 89.1369 17.307C89.1943 17.2841 89.7333 17.004 89.76 16.9811C89.8757 16.8817 90.1624 16.227 90.4032 15.9824C90.7406 15.6374 90.7979 15.905 90.9356 15.8209C91.0235 15.7673 91.077 15.4309 91.314 15.8859L91.487 15.8323L91.4249 16.1353C91.4985 16.1162 91.5558 16.0091 91.5482 16.1659C91.5329 16.4105 91.2796 16.5873 91.4564 16.8588C92.0643 16.1009 91.3178 15.2465 90.4797 15.7024C90.1586 15.8744 90.0362 16.2767 89.7992 16.3761C89.8222 16.3226 89.9292 16.2156 89.7715 16.2576C89.5842 16.3073 89.4733 16.4641 89.3166 16.5252C89.1331 16.5988 88.9219 16.5797 88.7613 16.6332C88.4326 16.7441 88.0876 16.9429 87.7473 16.9735C87.8735 16.7555 88.1841 16.7708 88.3943 16.6867C88.4823 16.6523 88.532 16.5482 88.5969 16.5214C88.704 16.4755 88.7613 16.6332 88.8645 16.3723L88.8951 16.4908H89.0146L89.2554 16.1926L89.0414 16.2385L88.9257 16.0703L88.746 16.3111L88.5969 16.1926C88.6122 16.5023 88.2491 16.5912 87.992 16.6141C87.8888 16.5176 88.3943 16.1773 88.532 16.25V16.013C88.7996 16.0397 89.4083 16.0856 89.5613 15.8323C88.8951 15.6106 88.3982 15.8553 87.8123 16.1621C87.15 16.5138 86.7715 16.8817 86.4533 17.5784C86.1781 18.1834 86.3615 18.2254 86.3004 18.7501C86.2316 19.3092 85.7996 19.9486 85.3399 20.263L85.7614 20.5918C85.8225 20.3739 85.5922 20.37 85.5196 20.2324L86.1207 20.1703C86.1972 20.458 86.0251 20.7676 85.8799 21.0132C86.2239 21.0782 86.5078 21.2311 86.8595 21.0591C87.0506 20.9674 87.4415 20.458 87.5065 20.2592C87.5409 20.1512 87.4835 20.155 87.4147 20.2171L87.3842 20.0518L87.2035 20.2324L87.2341 19.8721C87.085 20.113 86.8518 20.2821 86.6033 20.4159C86.6798 20.0365 87.1424 19.9447 87.1462 19.4812L86.9053 19.6313V19.2098L87.1462 19.0875L86.8442 19.1486C86.8404 18.9221 86.7333 18.7157 86.481 18.7234V18.5437H86.6607C86.5804 18.3717 86.7371 18.1681 86.7563 18.0305C86.7601 17.9922 86.6645 17.9387 86.6874 17.8814C86.6951 17.8623 86.978 17.5784 87.0009 17.5746C87.0888 17.5669 87.1882 17.6434 87.2924 17.6358C87.5027 17.6243 87.625 17.3873 87.7856 17.2841C88.1535 17.0499 88.4976 16.8626 88.8913 16.7632C88.984 16.7403 89.0872 16.6714 89.1637 16.6141L89.221 16.7364C89.3281 16.6523 89.5039 16.4602 89.6186 16.4067C89.6951 16.3723 89.7639 16.3876 89.7954 16.3761H89.8107V16.3723ZM82.2128 17.0346C81.8726 16.9735 81.5782 17.0346 81.2485 17.1225L81.5171 17.2191C81.8535 17.0996 82.2855 17.307 82.6075 17.4561L82.6993 17.3376L82.1555 17.2152L82.2166 17.0346H82.2128ZM75.4005 17.6396C75.1673 17.5899 75.1559 17.8317 75.0106 17.9387C74.7918 17.7667 75.1559 17.5517 75.0985 17.3376C74.8147 17.4293 74.7765 17.7896 74.6274 18.0419C74.3674 18.4787 74.0845 18.9489 73.7128 19.2977C73.7128 19.3321 74.2527 19.5969 74.3139 19.5386L73.8924 19.206C74.2374 19.0569 74.4898 19.206 74.7956 19.3589C74.8997 19.4201 74.8338 19.4239 74.807 19.4851C74.7459 19.6313 74.6274 19.7842 74.5547 19.9295C74.8911 20.0288 75.3203 20.3127 75.672 20.113C76.0246 19.9142 76.0743 19.6198 76.3037 19.3551C76.3152 19.2022 76.2807 19.2901 76.1966 19.3092C75.929 19.3665 75.7991 19.5424 75.5802 19.6886C75.5802 19.4239 75.8373 19.2901 75.9405 19.0531L75.8144 18.9881L75.8793 18.7234L75.477 19.2022H75.1559C75.1979 18.9843 75.4311 19.0837 75.4464 19.076C75.5573 19.011 75.757 18.5819 75.6949 18.4252C75.5535 18.494 75.5535 18.7272 75.3356 18.666L75.6376 18.126L75.2782 18.429L75.3967 17.9464L75.2476 18.0649C75.1215 17.9808 75.4273 17.6663 75.3967 17.6434L75.4005 17.6396ZM59.6017 18.3019L59.4794 17.4599L59.3838 17.8814L59.8732 18.9642C59.942 18.7654 59.7967 18.6125 59.7776 18.3946C59.7547 18.1069 59.9496 17.7313 59.7202 17.5784L59.6017 18.3019ZM97.9505 17.5784C97.6867 17.6931 97.5185 17.5211 97.3159 17.5134C97.1658 17.5058 96.8753 17.5861 96.7033 17.6128C96.5083 17.6434 96.3659 17.5861 96.1403 17.7581L97.4382 17.9999C97.702 17.9158 97.8472 17.8393 98.1311 17.9387C98.154 18.0687 98.069 18.084 97.9772 18.1222C97.7249 18.214 97.1467 18.1222 96.9059 18.191C96.7682 18.2331 96.7721 18.4061 96.7033 18.4252C96.5427 18.4634 96.3315 18.2904 96.2627 18.4825C96.7262 18.6316 97.0397 18.2981 97.3847 18.2445C97.5376 18.2216 97.6981 18.256 97.8549 18.2331C98.2267 18.1796 98.5707 18.0496 98.9769 18.1184L97.8931 17.7581L97.9543 17.5784H97.9505ZM84.2036 17.7581L83.8012 17.6014L82.9363 17.7313L83.3042 17.7896C83.266 18.0725 84.0086 18.1566 84.1424 17.9425H83.4801V17.7619C83.74 17.6778 83.9388 17.7237 84.2036 17.7619V17.7581ZM88.7269 17.6969C88.7002 17.5822 88.6199 17.5861 88.5243 17.5822C88.3599 17.5822 87.8505 17.7122 87.6862 17.7743C87.6173 17.8011 87.5371 17.8623 87.5218 17.9387C87.9194 17.8355 88.3102 17.6778 88.7269 17.6969ZM100.906 18.8457C100.928 18.7348 100.848 18.7004 100.779 18.6392C100.453 18.3554 99.8877 18.2789 99.4777 18.0725C99.2865 17.9769 98.9769 17.6816 98.7619 17.6434L98.2534 17.7007L99.6382 18.2445C99.4547 18.2063 99.2827 18.2866 99.1183 18.2981C99.0266 18.3057 98.9387 18.2484 98.8383 18.2598C98.4981 18.2981 98.2764 18.5055 97.9466 18.4863C97.9466 18.5896 97.9084 18.6163 98.0231 18.5934C98.2725 18.5513 98.521 18.3908 98.7695 18.3669C99.2521 18.3248 99.9756 18.3755 100.431 18.5628C100.615 18.6392 100.714 18.8113 100.902 18.8457H100.906ZM95.2984 17.8814C95.4131 17.8814 95.5239 17.8202 95.6319 17.8164C95.7504 17.8164 96.213 17.9769 95.9913 17.7046L95.0575 17.7581L95.1187 17.9387H94.5176L95.1187 17.9999C95.0117 18.2063 94.6819 18.1069 94.4908 18.1107L94.4487 17.9425C94.3532 17.9425 93.8438 17.7973 93.8514 17.9693C93.8514 18.0037 93.9747 18.1031 94.0473 18.1031C94.4526 18.1107 94.6628 18.2675 95.0843 18.2981C95.2831 18.3134 95.0728 18.1719 95.1149 18.1184C95.7428 17.954 96.3888 18.3592 96.9861 17.9655C96.6077 17.9425 96.3582 18.084 95.9301 18.0572C95.7657 18.0496 95.3901 18.0228 95.2984 17.8737V17.8814ZM91.2567 18.363C91.3293 18.1604 90.6603 17.6969 90.5944 17.7619L90.7138 17.9731L91.2567 18.363ZM60.3252 18.5437L60.4475 17.8814C60.3137 17.9158 60.3634 18.1375 60.2946 18.2407C60.2526 18.3019 60.1494 18.3172 60.1188 18.363C60.0117 18.5284 60.1302 18.8916 60.1494 19.0875C60.5316 19.0034 60.157 18.8457 60.1494 18.8036C60.1188 18.6775 60.2143 18.4978 60.2143 18.363L60.3329 18.5437H60.3252ZM53.834 18.3831C53.9487 18.2828 54.2632 18.1299 54.2058 17.9387L53.2711 18.7807C53.3944 18.7272 53.6314 18.6163 53.727 18.5399C53.7767 18.5016 53.792 18.4175 53.834 18.3793V18.3831ZM75.8832 18.1222C75.9061 18.601 76.5139 18.3554 76.4834 17.9425C76.3343 18.1451 76.124 18.2254 75.8832 18.1222ZM96.083 18.363C96.0486 18.2369 96.0065 18.2713 95.9148 18.2828C95.6854 18.3095 95.2945 18.3631 95.0843 18.4252C95.0002 18.4481 94.897 18.4328 94.8779 18.5475C95.2869 18.5743 95.6816 18.4137 96.083 18.3669V18.363ZM100.423 18.903C100.239 18.6622 99.7348 18.6507 99.4433 18.6431C99.3553 18.6431 99.298 18.5666 99.2177 18.6928L100.423 18.903ZM54.1131 18.666C53.6926 18.7539 53.3629 19.1601 53.0226 19.4162C52.8277 19.5615 52.541 19.6313 52.4253 19.8721C52.4636 19.9027 52.778 19.7001 52.843 19.658C53.275 19.3627 53.7002 18.9919 54.1131 18.6698V18.666ZM60.6846 18.7845C60.5355 18.7386 60.5316 18.9183 60.5202 19.011C60.4934 19.2289 60.566 19.3513 60.5584 19.4812C60.5584 19.5692 60.459 19.6313 60.4399 19.723C60.4208 19.8148 60.631 19.8301 60.5622 19.9906C60.6425 20.09 60.6693 19.983 60.6807 19.9027C60.7075 19.7039 60.7763 19.3016 60.5622 19.2404C60.7534 19.1219 60.6043 18.9565 60.6807 18.7883L60.6846 18.7845ZM87.3994 19.6886C87.2876 19.2824 87.7435 19.3092 87.7588 18.9642C87.5715 19.2213 87.2418 19.2251 87.2341 19.6007L87.3994 19.6886ZM70.1958 19.4086C70.1575 19.3665 69.5105 18.9221 69.5526 19.0569L69.7934 19.4468L69.5793 19.3895C69.5908 19.5042 68.8711 19.4621 68.7526 19.4315C68.6647 19.4086 68.1783 19.0684 68.1056 19.1448V19.8071L67.8648 19.3857C67.6851 19.9906 67.8839 20.5956 67.9221 21.1929L67.6813 21.0744L67.8036 21.5876L67.6775 21.6488L67.9183 22.3417L67.6163 22.1008C67.666 22.4563 67.8648 22.7096 67.6736 23.0651L67.494 22.9466V23.2496L67.3745 23.1875C67.3439 23.5898 67.4787 24.1604 67.1337 24.4557C67.126 24.34 67.1566 24.0724 67.0152 24.0342C66.8852 24.2598 66.8928 24.643 66.824 24.838C66.782 24.9527 66.6443 24.903 66.586 24.9756C66.5516 25.0215 66.2038 26.1511 66.1082 26.0211L66.047 25.8415C66.0012 26.0594 65.9056 26.3853 65.7708 26.5611C65.5912 26.7943 65.3541 26.7599 65.1706 27.1049C65.1018 27.2349 64.7912 28.204 64.8409 28.2537L67.2751 28.139C67.5781 27.4566 68.0177 26.9826 68.7488 26.7637C69.089 26.6605 69.9702 26.649 70.1422 26.4082C70.4366 25.9982 69.8355 24.9488 70.0849 24.4318L69.8431 24.298C69.7743 23.8545 69.9664 23.3413 69.9081 22.916C69.8813 22.7249 69.7514 22.6561 69.7246 22.4372C69.6596 21.9125 69.6864 20.8144 69.7246 20.263C69.7514 19.853 69.7475 19.4774 70.2722 19.5692C70.2799 19.5692 70.2149 19.4354 70.1919 19.4086H70.1958ZM60.9875 20.1703L61.0449 19.508C60.9722 19.5309 60.8193 19.7421 60.8145 19.7918C60.8069 19.8606 60.8996 19.9103 60.9034 19.9639C60.9034 20.0059 60.8145 20.0518 60.8308 20.1168C60.8499 20.1942 60.9608 20.263 60.9837 20.3891C61.0449 20.7026 60.9493 21.2197 60.9837 21.5264C61.0181 21.8323 61.236 22.1352 61.1634 22.4678L61.2819 22.4066L61.343 22.6484L61.4042 22.0473L61.2245 22.227L61.2819 21.384L61.2207 21.6258C60.8881 21.3917 61.408 21.1088 61.343 20.7829L61.1634 20.845L61.2245 20.1206L60.9837 20.1818V20.1703H60.9875ZM51.7602 20.9559C51.9857 20.8297 52.0048 20.7753 52.1692 20.6529C52.4636 20.435 52.7971 20.305 52.843 19.8683C52.5056 19.9142 52.583 20.1091 52.4521 20.2898C52.2113 20.6223 51.9628 20.4541 51.7602 20.9521C51.7258 20.9712 51.656 20.9597 51.6063 21.0056C51.4878 21.1164 51.3807 21.7826 51.3999 21.9775L51.6101 21.557C51.6178 21.3152 51.6713 21.1661 51.7602 20.9521V20.9559ZM87.8811 20.2324C87.7626 20.2133 87.6441 20.4197 87.5829 20.5038C87.5524 20.5459 87.388 20.76 87.3994 20.7714L87.8811 20.5918L87.7015 20.5306L87.8811 20.2286V20.2324ZM78.6538 22.0435C78.692 22.0005 78.7149 21.0591 78.5353 21.017C78.5467 21.3267 78.5353 21.6373 78.5353 21.9508C78.5353 22.0741 78.5353 22.0511 78.6576 22.0435H78.6538ZM61.5915 21.1967C61.4195 21.1661 61.4921 21.235 61.4615 21.3343C61.4118 21.515 61.3392 21.7711 61.4998 21.9164C61.603 21.7138 61.5418 21.427 61.5877 21.1929L61.5915 21.1967ZM61.6498 24.2101C61.6498 24.0992 61.7148 23.9845 61.7148 23.8775C61.7148 23.4675 61.6689 22.8969 61.7148 22.4908C61.7377 22.2499 61.9748 21.9355 61.8066 21.7367L61.5265 22.6981H61.3507L61.408 22.8205L61.1825 22.9122C61.2628 23.0154 61.1404 23.2955 61.3469 23.2458L61.408 22.8855L61.3507 24.1527L61.4998 23.7924L61.6498 24.2139V24.2101ZM78.9711 22.334L79.0169 22.162C78.7761 22.3608 78.6499 22.9275 79.0169 23.0651L79.1402 22.7631L78.9596 22.8243L79.0829 22.3722L78.9711 22.334ZM91.6208 23.7313C91.961 23.6242 91.7278 22.2576 91.4402 22.5252C91.3828 22.6332 91.919 23.1569 91.5635 23.0078L91.6246 23.7313H91.6208ZM79.0169 23.9731C79.1402 23.9463 79.1173 23.8469 79.1364 23.7618C79.1976 23.4713 79.2549 23.1798 79.3161 22.8893C79.1288 23.0154 79.1976 23.2572 78.9481 23.3528L79.0131 23.9769L79.0169 23.9731ZM62.013 23.1875H61.8945C62.0053 23.4866 61.9709 23.8469 61.8945 24.1527C62.055 24.1795 62.0015 24.126 62.0321 24.0227C62.1162 23.7389 62.1774 23.4445 62.013 23.1875ZM96.4471 26.3241C96.3238 26.0555 96.4701 25.5194 96.3277 25.3244C96.1365 25.0568 95.7542 25.1409 95.4742 25.0912C95.0728 25.0176 94.7785 24.5436 94.7546 25.3588L94.5749 25.2403C94.6896 26.0058 94.2117 26.7714 94.5214 27.4958C94.6743 27.8513 95.306 28.4907 94.6896 28.8242C93.9202 29.2409 92.8374 28.2766 92.5545 27.5952C92.4437 27.5952 92.2908 28.2995 91.9802 27.9545L91.6781 28.7975L93.5265 29.0154C93.7903 29.0421 94.1315 28.9733 94.3646 28.9771C94.7507 28.9848 95.1378 29.088 95.5316 29.0307C95.566 28.4945 96.1059 28.2384 96.5236 28.0004C96.6421 27.9316 96.9441 27.8628 96.9861 27.7863C97.1926 27.4222 96.5503 26.6261 96.5618 26.2046L96.4433 26.3241H96.4471ZM78.8984 24.9947C78.7379 24.9565 78.7417 25.1524 78.6576 25.2021C78.6194 25.225 78.5391 25.1715 78.4435 25.2289C78.2868 25.3244 78.0985 25.6188 77.9915 25.7765C78.0488 25.8262 78.5888 25.3894 78.6576 25.3244C78.7111 25.2747 78.9596 25.0568 78.8984 24.9909V24.9947ZM82.814 24.9947H82.6955C82.6955 25.1218 82.5693 25.2403 82.4584 25.1639C82.4317 25.1448 82.4928 25.0253 82.3935 25.053C82.1402 25.96 81.5247 26.3509 80.7248 26.7331C80.2766 26.9482 79.3543 27.1546 79.1249 27.6028C79.0093 27.8246 79.0255 28.0855 78.8602 28.3034C78.7073 28.5098 78.4741 28.5136 78.3518 28.7287C78.9137 28.9886 78.9558 28.4639 79.274 28.204C79.3658 28.1275 79.5302 28.116 79.6028 28.0463C79.6907 27.9622 79.7328 27.6869 79.8092 27.5608C80.0701 27.1278 80.5633 27.1087 80.9694 26.9099C81.4741 26.6643 81.9223 26.37 82.3046 25.9561C82.3973 25.8568 82.4776 25.723 82.5196 25.592C82.5808 25.55 82.7413 25.7994 82.6955 25.4697L82.8751 25.8032C82.4776 25.9409 83.0586 26.6032 82.9363 26.7943C82.6878 26.6681 82.684 27.254 82.6037 27.4566C82.4584 27.8322 82.1708 28.1619 82.2128 28.6054C82.6687 28.3454 83.3234 28.5174 83.8433 28.5136C83.9503 28.4219 84.0315 28.3034 84.1462 28.2193C84.3182 28.0931 84.9691 27.7749 84.9729 27.6258C84.9729 27.4652 84.777 26.6681 84.6852 26.5267C84.4826 26.2123 84.0506 26.1549 83.8394 25.9256C83.526 25.5844 83.6445 25.2365 83.0242 25.1103L82.9669 25.2289L82.814 24.9871V24.9947ZM100.906 26.6261L99.8227 25.3588C99.8036 25.6302 99.7959 25.96 99.7539 26.2276C99.7233 26.4158 99.5885 26.6567 99.5809 26.779C99.5732 26.9252 99.6841 27.1202 99.6382 27.2884L99.4586 27.1087C99.4203 27.6105 99.7998 28.0577 99.3706 28.4983L98.7963 28.9771H102.011C102.164 28.4792 102.807 28.441 102.888 27.9354C102.67 27.3954 102.21 27.3725 101.793 27.1546C101.495 26.9979 101.242 26.6834 100.967 26.5343C100.86 26.477 100.921 26.5535 100.906 26.6261ZM91.0158 26.0823C90.7444 26.0899 90.7712 26.4808 90.6833 26.6223C90.6259 26.714 90.4415 26.7064 90.4759 26.8679C90.6221 27.0055 91.0655 26.132 91.0197 26.0823H91.0158ZM69.5487 27.5302C69.0432 27.4729 69.0661 27.8054 68.8864 28.1313L69.5487 27.5302ZM58.6336 27.771C58.2274 27.8551 57.7305 28.2154 57.7916 28.6742L58.193 28.0692L58.6948 27.9507L58.6336 27.771ZM59.4182 27.9507C59.0656 27.9622 58.626 28.311 58.5763 28.6742C58.7215 28.5671 58.7942 28.3989 58.9356 28.2804C59.0771 28.1619 59.3227 28.116 59.4221 27.9507H59.4182ZM60.2029 28.0119H59.8426C59.9573 28.2613 59.8426 28.1543 59.7585 28.2575C59.6361 28.4104 59.5138 28.5863 59.5406 28.7975L60.2029 28.0119ZM85.2902 28.1925C85.0914 28.1237 84.5514 28.7134 84.6279 28.7936C84.8773 28.5939 85.1296 28.4792 85.2902 28.1925ZM54.2326 28.7975L52.8468 28.7363C53.0303 28.9924 53.3094 28.8739 53.5282 28.8777C53.6429 28.8777 53.7538 28.9236 53.899 28.916C53.964 28.916 54.2249 28.8854 54.2326 28.7936V28.7975ZM65.572 28.916C64.9795 28.8242 64.321 28.851 63.7314 28.9771C63.6281 29.0001 63.5517 28.9083 63.5823 29.0956C63.674 29.0536 63.7466 29.0345 63.8499 29.0307C64.3172 29.023 64.925 29.0727 65.3694 29.0307C65.4612 29.023 65.5453 29.0307 65.572 28.916ZM84.2647 29.3374H83.2087C83.1657 29.3374 82.9592 29.2256 82.9363 29.3986C83.3042 29.3413 83.7018 29.4636 84.0506 29.4636C84.1806 29.4636 84.2991 29.5133 84.2647 29.3413V29.3374ZM87.4606 29.7006H88.3943C88.4517 29.7006 88.6428 29.8841 88.6046 29.6394C88.2529 29.5783 87.9041 29.5936 87.5485 29.5821C87.4262 29.5783 87.453 29.5821 87.4568 29.7006H87.4606ZM69.2506 29.9424H68.1935C68.1935 29.9424 68.098 30.0227 68.1018 30.0609H68.378L69.2506 29.9424ZM94.1544 30.3629C94.1697 30.5206 94.1544 30.4585 94.0626 30.4852C93.775 30.5703 93.1213 30.5971 92.7992 30.6047C91.4325 30.6429 90.0821 30.4203 88.7231 30.4508C88.6925 30.3285 88.811 30.3476 88.8913 30.3209C89.2363 30.21 89.9827 30.1985 90.3727 30.2024C91.077 30.21 91.7814 30.3553 92.4972 30.3629C93.0324 30.3667 93.6068 30.1985 94.1544 30.3629ZM80.3454 30.4852L80.311 30.6735C80.181 30.7691 78.4856 30.7882 78.2065 30.7882C78.0947 30.7882 77.9723 30.727 77.8462 30.727C77.1036 30.7156 76.3648 30.815 75.6414 30.6085C75.7264 30.4547 76.0514 30.4394 76.2119 30.4241C77.548 30.3209 78.994 30.5818 80.3454 30.4852ZM53.8723 29.6394C52.9844 29.605 52.0775 29.6853 51.1896 29.6394C50.8178 29.6203 50.2368 29.563 49.8688 29.5133C49.8038 29.5056 49.6012 29.4751 49.6547 29.368C49.7312 29.2447 49.8 29.2877 49.907 29.2916C50.7223 29.3183 51.5298 29.2638 52.3412 29.2715C52.6289 29.2715 53.383 29.3451 53.6544 29.4101C53.7576 29.4368 53.9029 29.5056 53.8761 29.6394H53.8723ZM75.3394 30.5435C75.4923 30.6735 74.9991 30.7232 74.9494 30.727C74.1572 30.7882 72.974 30.7691 72.1702 30.727C71.8491 30.7079 71.4888 30.6468 71.1792 30.5741C71.1792 30.4738 72.09 30.3591 72.2314 30.3591C72.4579 30.3591 72.6452 30.4241 72.8326 30.4241C73.6745 30.4241 74.5089 30.382 75.3394 30.5435ZM88.1841 30.4852L85.4431 30.5474C85.1793 30.4126 84.6394 30.6391 84.6852 30.2444C84.9958 30.2559 85.3093 30.1871 85.6151 30.1794C86.1092 30.1679 87.6288 30.1679 88.0264 30.3056C88.1258 30.34 88.2032 30.3514 88.1803 30.4814H88.1841V30.4852ZM63.2793 30.7844C63.2869 30.9258 63.2994 30.8914 63.1876 30.9029C62.2768 31.0176 61.4845 30.922 60.5966 30.9029C59.9152 30.8876 59.25 31.0061 58.5724 30.815L60.8308 30.662L63.2755 30.7844H63.2793ZM83.8433 30.4852C83.9579 30.6009 83.5527 30.7003 83.4992 30.7117C82.8675 30.8455 81.5706 30.8455 80.9197 30.7844C80.7898 30.7729 80.4792 30.6888 80.7248 30.5894C80.8433 30.5397 81.1415 30.5015 81.2829 30.4852C81.5782 30.4547 82.0026 30.4317 82.3046 30.4203C82.5272 30.4126 83.763 30.4011 83.8471 30.4852H83.8433ZM56.165 30.1221C56.3676 30.2903 55.4377 30.3591 55.3536 30.3667C55.1013 30.382 52.5524 30.3973 52.5486 30.2138C53.0494 30.0418 53.6697 30.1412 54.2096 30.1259C54.3511 30.1221 54.4849 30.0609 54.6263 30.0609C55.1434 30.0533 55.6556 30.0762 56.165 30.1221ZM101.572 30.0036C101.671 30.08 101.564 30.1144 101.484 30.1221C101.246 30.1527 100.837 30.145 100.577 30.1488C99.8915 30.1527 99.0113 30.1756 98.3413 30.1259C98.2343 30.1183 98.1464 30.1412 98.0737 30.0342C98.0737 29.8879 99.0648 29.8497 99.2445 29.8191L101.572 30.0036ZM67.861 30.727C67.1643 30.7538 66.284 30.8723 65.595 30.792C65.4727 30.7767 65.3694 30.7653 65.3885 30.6085C65.5415 30.6124 65.6867 30.5512 65.8406 30.5435C66.3185 30.5168 67.2063 30.4929 67.6545 30.5435C67.7769 30.5588 67.8801 30.5703 67.861 30.727ZM50.2253 28.916C50.2712 28.9274 50.4241 29.0307 50.4355 29.0956C49.7006 29.1301 48.9389 29.1989 48.2346 29.0345L48.2957 28.9121C48.851 28.9924 49.7159 28.8051 50.2253 28.9121V28.916ZM70.6965 30.5474C70.406 30.8417 69.9081 30.6659 69.5831 30.6659C69.3805 30.6659 69.1932 30.7309 69.0394 30.7309C68.8367 30.7309 68.5806 30.6162 68.3474 30.6697C68.2471 30.5971 68.3474 30.5588 68.4353 30.5512C68.8367 30.5015 69.3997 30.5588 69.824 30.5512C70.1078 30.5512 70.3793 30.4508 70.6965 30.5512V30.5474ZM63.609 30.7844C63.5593 30.7691 63.4982 30.6697 63.5173 30.6047C63.5937 30.4977 64.8448 30.5244 65.0254 30.6315C65.1248 30.6926 65.0177 30.7844 64.9948 30.7844H63.609ZM72.0212 29.9997C72.1741 29.6815 73.4528 29.8038 73.4681 30.0303C73.3458 30.2176 73.1651 30.0533 73.016 30.0609C72.6643 30.0762 72.3958 30.1794 72.0212 29.9997ZM96.3238 30.4241C95.8842 30.4241 95.4283 30.5397 94.9964 30.3935L96.0524 30.2979L96.32 30.4203L96.3238 30.4241ZM47.9631 28.916C47.8026 29.1759 47.2282 29.1568 46.9988 29.0039C47.297 28.8586 47.642 28.9274 47.9631 28.916ZM105.85 29.5821C105.682 29.7885 105.253 29.8038 105.066 29.6127C105.299 29.4636 105.598 29.5095 105.85 29.5821ZM7.66191 57.9542V57.7086C8.76479 57.5021 9.00181 57.3378 8.75332 56.5914C8.50771 55.8019 8.05661 54.4773 7.51282 52.9807H3.72821C3.32204 54.1447 2.97034 55.0976 2.69414 55.9787C2.26981 57.2766 2.53358 57.418 4.0264 57.7086V57.9542H0V57.7086C1.10575 57.5136 1.41636 57.3607 2.12071 55.5764L6.09646 45.2958L6.41089 45.25C7.60074 48.7192 8.84507 52.1875 10.1229 55.714C10.7316 57.4104 10.9534 57.4448 12.1518 57.7086V57.9542H7.66191ZM5.6683 47.6392C5.05952 49.2582 4.50807 50.859 3.927 52.4178H7.32932L5.6683 47.6392ZM19.4582 48.1028C19.1017 46.716 18.4662 45.6514 16.7746 45.6514C15.3898 45.6514 14.7427 46.674 14.7427 47.8189C14.7427 49.2429 15.5388 49.8364 17.0584 50.7329C18.5465 51.6131 20.1922 52.586 20.1922 54.6417C20.1922 56.6984 18.4776 58.2409 16.182 58.2409C15.1327 58.2409 14.0919 57.9389 13.4334 57.7009C13.3187 57.2116 13.032 55.4235 12.9976 55.0708L13.2729 55.0135C13.6169 56.2693 14.5248 57.8319 16.4573 57.8319C18.0304 57.8319 18.6965 56.6181 18.6965 55.3346C18.6965 53.9106 17.7504 53.0954 16.4114 52.2716C14.9262 51.3608 13.3875 50.4299 13.3875 48.4927C13.3875 46.6625 14.8765 45.2385 17.1081 45.2385C18.275 45.2385 19.0253 45.4679 19.4429 45.5329C19.5194 46.2105 19.6188 47.1375 19.7526 48.0406L19.462 48.0989H19.4582V48.1028ZM26.282 45.5099C27.6209 45.5099 28.6397 45.767 29.3632 46.2917C30.1201 46.8737 30.6142 47.7386 30.6142 48.9562C30.6142 51.5519 28.3941 52.7657 26.5916 52.7657C26.4043 52.7657 26.2208 52.7312 26.0755 52.6968L24.8159 52.4025V55.8402C24.8159 57.3722 24.9917 57.4907 26.4999 57.7162V57.9618H21.6353V57.7162C23.1472 57.5021 23.2772 57.3416 23.2772 55.7943V47.6851C23.2772 46.0728 23.1511 45.9734 21.6659 45.7594V45.5137H26.282V45.5099ZM24.8159 52.0269C25.0759 52.1339 25.5814 52.2027 26.1138 52.2027C27.2845 52.2027 28.9035 51.6475 28.9035 48.9753C28.9035 46.8231 27.6744 45.9046 26.0363 45.9046C25.5508 45.9046 25.1523 45.9926 25.0376 46.0996C24.8809 46.2296 24.8159 46.5019 24.8159 47.1528V52.0269ZM41.0706 55.1855C40.975 55.8249 40.63 57.4027 40.4847 57.958H31.6779V57.7124C33.3542 57.483 33.4727 57.3569 33.4727 55.7599V47.7998C33.4727 46.1378 33.4077 46.0193 31.9426 45.7555V45.5099H37.4265C39.1142 45.5099 39.7192 45.5099 40.0441 45.4717C40.0441 46.1531 40.1254 47.5016 40.1904 48.1066L39.9142 48.1486C39.7765 47.6545 39.5128 46.9616 39.2786 46.6052C38.9193 46.0881 38.6555 46.0384 37.5259 46.0384H35.559C35.0611 46.0384 35.019 46.0996 35.019 46.609V51.0731H37.3003C38.6402 51.0731 38.7931 50.794 39.0263 49.5268H39.2863V53.1604H39.0263C38.7128 51.8587 38.5905 51.6131 37.3309 51.6131H35.019V56.0667C35.019 57.3607 35.494 57.4372 36.5883 57.4372H38.3449C39.3025 57.4372 39.5701 57.2689 40.048 56.5799C40.3471 56.1661 40.5879 55.672 40.8211 55.1205L41.0782 55.1779L41.0706 55.1855ZM54.8022 45.7555C53.4594 46.0537 53.3132 46.2802 53.275 47.5819C53.2558 48.0951 53.2176 48.4659 53.2176 50.1891V58.1759H52.8812L44.2894 47.6316V53.0189C44.2894 54.8453 44.3238 55.4349 44.3467 56.0476C44.3926 57.1925 44.664 57.4601 46.2065 57.7086V57.9542H41.8629V57.7086C43.2821 57.4027 43.5621 57.2116 43.608 56.0437C43.6309 55.5114 43.673 54.7956 43.673 53.0189V47.4663C43.673 47.1107 43.5889 46.8575 43.3968 46.6243C42.9304 46.0346 42.398 45.8817 41.6669 45.7479V45.5023H44.5226L52.6213 55.2734V50.1814C52.6213 48.4583 52.5945 48.1486 52.5601 47.5169C52.4865 46.2726 52.2036 45.939 50.5999 45.7441V45.4985H54.7984V45.7555H54.8022ZM69.7743 57.9542V57.7086C71.2633 57.441 71.3092 57.2766 71.3283 55.3738L71.3856 46.9616C69.7743 50.4299 66.717 57.1113 66.3949 57.9504H66.1885C65.9553 57.3034 63.7849 52.0651 61.7148 47.1872C61.4615 54.2212 61.4692 55.4158 61.473 56.1737C61.4807 57.204 61.776 57.5098 63.2334 57.7086V57.9542H59.0197V57.7086C60.3443 57.5327 60.5966 57.1925 60.696 56.1966C60.7763 55.4235 60.8384 54.3435 61.2169 47.1987C61.2513 46.4561 61.1595 45.9352 59.4488 45.7479V45.5023H62.5644L66.9043 55.3193L71.5892 45.5023H74.6388V45.7479C72.9893 46.004 72.8555 46.1837 72.8555 47.9527L72.9014 55.3738C72.9205 57.3034 73.0772 57.4524 74.6388 57.7086V57.9542H69.7743ZM88.0684 45.7555C86.6836 45.9734 86.6186 46.3223 86.5613 47.2789C86.5384 47.7577 86.4848 48.3895 86.4848 50.0744V52.586C86.4848 54.4085 86.2966 55.9052 85.1985 57.0386C84.345 57.9045 83.1465 58.2447 81.8229 58.2447C80.6588 58.2447 79.4996 57.9618 78.7379 57.353C77.5518 56.3993 77.1839 55.197 77.1839 53.0074V47.8724C77.1839 46.1531 77.0692 46.004 75.649 45.7594V45.5137H80.2574V45.7594C78.8296 46.027 78.7111 46.1531 78.7111 47.8724V52.8612C78.7111 55.7293 79.8054 57.4104 82.4623 57.4104C85.3246 57.4104 85.8913 55.6376 85.8913 52.5974V50.0629C85.8913 48.3933 85.8684 47.7998 85.8264 47.2216C85.7652 46.2525 85.5998 45.939 84.0086 45.7594V45.5137H88.0723V45.7594L88.0684 45.7555ZM100.465 58.0574C100.323 58.0574 99.8494 58.0574 99.6994 58.0421C97.9696 57.9465 97.5452 57.7086 96.7988 56.6793C96.1595 55.7714 95.2984 54.3206 94.6399 53.168C94.1582 52.3337 93.9317 52.1951 93.0133 52.1951H92.3022V55.7866C92.3022 57.2842 92.4475 57.4868 93.9594 57.7124V57.958H89.1293V57.7124C90.6058 57.4677 90.7712 57.3225 90.7712 55.7866V47.6469C90.7712 46.1493 90.6412 45.9849 89.1293 45.7555V45.5099H93.8056C95.1569 45.5099 96.1748 45.7135 96.8829 46.2219C97.5796 46.6893 98.046 47.536 98.046 48.5615C98.046 50.1967 96.9173 51.2461 95.6013 51.8205C95.9492 52.4484 96.8562 53.9565 97.4229 54.8185C98.089 55.844 98.5401 56.5101 98.9769 56.9927C99.4471 57.5098 99.7653 57.6665 100.526 57.8204L100.469 58.0574H100.465ZM93.3277 51.8013C94.2767 51.8013 94.8396 51.7555 95.3595 51.3646C96.083 50.8361 96.3277 50.0706 96.3277 48.9294C96.3277 46.8192 95.1875 45.9046 93.6565 45.9046C93.0018 45.9046 92.673 45.9734 92.5278 46.069C92.3634 46.1799 92.3022 46.3452 92.3022 46.9158V51.8013H93.3277ZM108.086 57.9542V57.7086C109.188 57.5021 109.425 57.3378 109.176 56.5914C108.932 55.8019 108.479 54.4773 107.936 52.9807H104.151C103.745 54.1447 103.393 55.0976 103.118 55.9787C102.693 57.2766 102.956 57.418 104.449 57.7086V57.9542H100.423V57.7086C101.53 57.5136 101.839 57.3607 102.544 55.5764L106.52 45.2958L106.834 45.25C108.025 48.7192 109.268 52.1875 110.547 55.714C111.155 57.4104 111.377 57.4448 112.575 57.7086V57.9542H108.086ZM106.091 47.6392C105.482 49.2582 104.932 50.859 104.35 52.4178H107.752L106.091 47.6392ZM119.885 48.1028C119.528 46.716 118.894 45.6514 117.202 45.6514C115.816 45.6514 115.169 46.674 115.169 47.8189C115.169 49.2429 115.966 49.8364 117.485 50.7329C118.974 51.6131 120.62 52.586 120.62 54.6417C120.62 56.6984 118.905 58.2409 116.609 58.2409C115.56 58.2409 114.519 57.9389 113.861 57.7009C113.745 57.2116 113.459 55.4235 113.424 55.0708L113.7 55.0135C114.045 56.2693 114.952 57.8319 116.884 57.8319C118.457 57.8319 119.123 56.6181 119.123 55.3346C119.123 53.9106 118.178 53.0954 116.838 52.2716C115.353 51.3608 113.815 50.4299 113.815 48.4927C113.815 46.6625 115.303 45.2385 117.535 45.2385C118.702 45.2385 119.452 45.4679 119.87 45.5329C119.946 46.2105 120.045 47.1375 120.179 48.0406L119.889 48.0989L119.885 48.1028ZM122.058 45.5099H126.892V45.7555C125.338 46.0384 125.231 46.1531 125.231 47.9183V51.4066C125.507 51.2996 125.897 51.0349 126.303 50.6488C127.394 49.6453 129.028 47.9412 129.901 46.9769C130.559 46.2219 130.406 46.0231 129.549 45.8358L129.101 45.7555V45.5099H133.307V45.7555C131.898 45.939 131.543 46.1646 130.352 47.2942C129.557 48.075 128.056 49.5382 126.697 50.882C128.19 52.6357 130.329 55.0823 131.34 56.1431C132.522 57.376 132.744 57.5442 133.935 57.7124V57.958H130.846C129.231 56.1546 127.394 54.0023 125.951 52.3337C125.576 51.8854 125.388 51.7325 125.231 51.6589V55.4885C125.231 57.376 125.384 57.3951 126.892 57.7124V57.958H122.058V57.7124C123.57 57.4639 123.7 57.3798 123.7 55.4885V47.9489C123.7 46.1072 123.574 45.9887 122.058 45.7555V45.5099ZM134.248 57.9542V57.7086C135.745 57.4448 135.89 57.2804 135.89 55.7484V47.7233C135.89 46.0996 135.756 45.9926 134.248 45.7517V45.5061H139.09V45.7517C137.566 45.9696 137.429 46.0958 137.429 47.7233V55.7446C137.429 57.2689 137.559 57.4257 139.09 57.7086V57.9542H134.248ZM53.555 74.4067L54.7181 75.9655C54.7487 76.0152 54.7563 76.0649 54.6875 76.0649H54.2708C54.2173 76.0649 54.1857 76.0534 54.1552 76.0037L53.0035 74.4335H51.9551V76.0075C51.9551 76.0381 51.9245 76.061 51.894 76.061H51.5184C51.4878 76.061 51.4648 76.0381 51.4648 76.0075V71.9486C51.4648 71.918 51.4878 71.8875 51.5184 71.8875H53.1717C53.5703 71.8875 53.9067 71.9371 54.1896 72.1245C54.4887 72.3271 54.6798 72.6759 54.6798 73.1624C54.6798 73.6144 54.4964 73.947 54.1982 74.162C54.0022 74.3073 53.7996 74.3761 53.555 74.4067ZM51.9551 72.3041V74.0196H53.0762C53.383 74.0196 53.62 73.9967 53.8226 73.8782C54.0367 73.7559 54.1819 73.5294 54.1819 73.1662C54.1819 72.8021 54.0405 72.5765 53.834 72.4504C53.6314 72.3271 53.3944 72.3041 53.1182 72.3041H51.9551ZM59.5291 71.8875C59.5597 71.8875 59.5826 71.918 59.5826 71.9486V72.2621C59.5826 72.3003 59.5597 72.3233 59.5291 72.3233H57.0911V73.7597H59.2118C59.2424 73.7597 59.2653 73.7826 59.2653 73.8132V74.1305C59.2653 74.162 59.2424 74.185 59.2118 74.185H57.0911V75.6243H59.5291C59.5597 75.6243 59.5826 75.6549 59.5826 75.6854V76.0037C59.5826 76.0343 59.5597 76.0572 59.5291 76.0572H56.6543C56.6238 76.0572 56.6008 76.0343 56.6008 76.0037V71.9448C56.6008 71.9142 56.6238 71.8836 56.6543 71.8836H59.5291V71.8875ZM61.5686 75.9999C61.5571 76.0419 61.5265 76.061 61.4768 76.061H61.1098C61.0716 76.061 61.0601 76.0419 61.0601 76.019C61.0601 76.0075 61.0601 75.9884 61.0716 75.9655L62.66 71.9371C62.6791 71.8875 62.7021 71.8683 62.7518 71.8683H63.1417C63.1914 71.8683 63.2143 71.8875 63.2334 71.9371L64.8142 75.9655C64.8142 75.9655 64.8333 76.0075 64.8333 76.019C64.8333 76.0419 64.8142 76.061 64.7721 76.061H64.3975C64.3478 76.061 64.3172 76.0419 64.3057 75.9999L63.9263 75.0308H61.948L61.5686 75.9999ZM62.9391 72.4657L62.0742 74.6361H63.8002L62.9352 72.4657H62.9391ZM66.9769 71.8875C67.0075 71.8875 67.0381 71.918 67.0381 71.9486V75.6243H69.1626C69.1932 75.6243 69.2162 75.6549 69.2162 75.6854V76.0037C69.2162 76.0343 69.1932 76.0572 69.1626 76.0572H66.6013C66.5708 76.0572 66.5478 76.0343 66.5478 76.0037V71.9448C66.5478 71.9142 66.5708 71.8836 66.6013 71.8836H66.9769V71.8875ZM76.7443 71.8875C76.7748 71.8875 76.7978 71.918 76.7978 71.9486V72.2621C76.7978 72.3003 76.7748 72.3233 76.7443 72.3233H74.3063V73.7597H76.426C76.4566 73.7597 76.4795 73.7826 76.4795 73.8132V74.1305C76.4795 74.162 76.4566 74.185 76.426 74.185H74.3063V75.6243H76.7443C76.7748 75.6243 76.7978 75.6549 76.7978 75.6854V76.0037C76.7978 76.0343 76.7748 76.0572 76.7443 76.0572H73.8695C73.8389 76.0572 73.816 76.0343 73.816 76.0037V71.9448C73.816 71.9142 73.8389 71.8836 73.8695 71.8836H76.7443V71.8875ZM78.5238 75.7237C78.4856 75.7045 78.4741 75.674 78.4932 75.6396L78.6461 75.3251C78.6576 75.2946 78.6844 75.2831 78.7264 75.306C78.9825 75.4714 79.3619 75.7045 79.921 75.7045C80.2154 75.7045 80.4486 75.6319 80.6053 75.5134C80.7898 75.372 80.8815 75.1646 80.8815 74.9237C80.8815 74.6055 80.655 74.4143 80.3492 74.2844C79.9898 74.1229 79.576 74.0693 79.144 73.8553C78.7837 73.6794 78.52 73.4147 78.52 72.9483C78.52 72.6186 78.6423 72.3433 78.8793 72.1436C79.1326 71.941 79.5034 71.8263 80.0013 71.8263C80.4983 71.8263 80.9312 71.9601 81.2141 72.1206C81.2523 72.1436 81.2562 72.1703 81.237 72.2047L81.0918 72.5115C81.0727 72.5498 81.0421 72.5612 81.0077 72.5345C80.7018 72.3586 80.3263 72.2468 79.9784 72.2468C79.6295 72.2468 79.3849 72.328 79.232 72.4695C79.102 72.5842 79.037 72.7409 79.037 72.9282C79.037 73.235 79.274 73.407 79.641 73.5418C80.0587 73.6947 80.4868 73.7482 80.8739 73.9776C81.1606 74.142 81.4167 74.4258 81.4167 74.8779C81.4167 75.2831 81.2523 75.5937 80.9771 75.8078C80.721 76.0113 80.353 76.1145 79.9287 76.1145C79.2778 76.1145 78.8181 75.9072 78.5238 75.716V75.7237ZM86.2469 71.8875C86.2774 71.8875 86.3004 71.918 86.3004 71.9486V72.2621C86.3004 72.3003 86.2774 72.3233 86.2469 72.3233H84.8429V76.0075C84.8429 76.0381 84.819 76.061 84.7808 76.061H84.4138C84.3756 76.061 84.3527 76.0381 84.3527 76.0075V72.3233H82.9478C82.9172 72.3233 82.8942 72.3003 82.8942 72.2621V71.9486C82.8942 71.918 82.9172 71.8875 82.9478 71.8875H86.2469ZM87.6135 75.9999C87.6021 76.0419 87.5715 76.061 87.5218 76.061H87.1538C87.1156 76.061 87.1041 76.0419 87.1041 76.019C87.1041 76.0075 87.1041 75.9884 87.1156 75.9655L88.704 71.9371C88.7231 71.8875 88.746 71.8683 88.7957 71.8683H89.1866C89.2363 71.8683 89.2593 71.8875 89.2784 71.9371L90.8591 75.9655C90.8591 75.9655 90.8782 76.0075 90.8782 76.019C90.8782 76.0419 90.8591 76.061 90.8171 76.061H90.4415C90.3918 76.061 90.3612 76.0419 90.3497 75.9999L89.9713 75.0308H87.992L87.6135 75.9999ZM88.984 72.4657L88.1181 74.6361H89.8451L88.9802 72.4657H88.984ZM95.0269 71.8875C95.0575 71.8875 95.0805 71.918 95.0805 71.9486V72.2621C95.0805 72.3003 95.0575 72.3233 95.0269 72.3233H93.6221V76.0075C93.6221 76.0381 93.5991 76.061 93.5609 76.061H93.1939C93.1557 76.061 93.1327 76.0381 93.1327 76.0075V72.3233H91.7278C91.6973 72.3233 91.6743 72.3003 91.6743 72.2621V71.9486C91.6743 71.918 91.6973 71.8875 91.7278 71.8875H95.0269ZM99.7185 71.8875C99.7501 71.8875 99.773 71.918 99.773 71.9486V72.2621C99.773 72.3003 99.7501 72.3233 99.7185 72.3233H97.2815V73.7597H99.4012C99.4318 73.7597 99.4547 73.7826 99.4547 73.8132V74.1305C99.4547 74.162 99.4318 74.185 99.4012 74.185H97.2815V75.6243H99.7185C99.7501 75.6243 99.773 75.6549 99.773 75.6854V76.0037C99.773 76.0343 99.7501 76.0572 99.7185 76.0572H96.8447C96.8141 76.0572 96.7912 76.0343 96.7912 76.0037V71.9448C96.7912 71.9142 96.8141 71.8836 96.8447 71.8836H99.7185V71.8875Z" fill="url(#goldGrad)"/>
</g>
</svg>
