<svg width="13" height="13" viewBox="0 0 13 13" fill="none" xmlns="http://www.w3.org/2000/svg">
<g clip-path="url(#clip0_221_24)">
<path d="M6.50004 11.9163C9.49158 11.9163 11.9167 9.49122 11.9167 6.49967C11.9167 3.50813 9.49158 1.08301 6.50004 1.08301C3.5085 1.08301 1.08337 3.50813 1.08337 6.49967C1.08337 9.49122 3.5085 11.9163 6.50004 11.9163Z" stroke="#0474FF" stroke-linecap="round" stroke-linejoin="round"/>
<path d="M1 5L12 5" stroke="#0474FF" stroke-linejoin="round"/>
<path d="M1 8H11.8333" stroke="#0474FF" stroke-linejoin="round"/>
<path d="M6.50004 1.08301C7.8549 2.56628 8.62487 4.49119 8.66671 6.49967C8.62487 8.50816 7.8549 10.4331 6.50004 11.9163C5.14518 10.4331 4.37522 8.50816 4.33337 6.49967C4.37522 4.49119 5.14518 2.56628 6.50004 1.08301Z" stroke="#0474FF" stroke-linecap="round" stroke-linejoin="round"/>
</g>
<defs>
<clipPath id="clip0_221_24">
<rect width="13" height="13" fill="white"/>
</clipPath>
</defs>
</svg>
