<svg preserveAspectRatio="none" width="100%" height="100%" overflow="visible" style="display: block;" viewBox="0 0 234 128" fill="none" xmlns="http://www.w3.org/2000/svg">
<g id="2dbd6fdde0">
<path id="Vector" d="M139.709 15.7506C139.709 15.7506 139.458 15.7506 139.542 15.9049C139.975 16.6185 140.258 17.3401 140.438 18.1582C140.45 18.5053 139.909 17.7725 139.936 18.2546C140.322 19.0534 140.605 19.9229 140.74 20.7988C140.804 21.2102 140.322 20.3986 140.29 20.4372C140.155 21.3388 140.772 22.2404 140.843 23.1292C140.875 23.5214 140.637 23.973 140.586 24.5002C140.534 25.0675 140.598 25.5689 140.74 26.117L140.438 26.0656C140.496 26.3034 140.746 26.4449 140.843 26.6763C140.959 26.9608 140.541 26.5927 140.637 26.8772C140.688 27.0315 140.778 27.0958 140.843 27.2308L140.335 26.9286L140.541 27.9395C139.716 28.3317 138.944 28.2674 138.061 28.1324C137.129 27.9845 136.33 27.5458 135.511 27.1279L135.157 27.4301L136.375 27.6358V27.9331L135.969 28.1388L136.986 28.0424L136.934 28.2417C137.334 28.1774 137.688 28.3831 138.061 28.4346C138.203 28.4538 138.376 28.3381 138.539 28.3574C138.783 28.3896 138.938 28.6917 139.079 28.7174C140.045 28.8926 141.274 28.8139 142.304 28.9569C142.632 29.0019 144.095 29.2848 144.295 29.4005C144.475 29.5033 144.34 29.5226 144.295 29.6062C144.147 29.8569 143.811 30.3985 143.586 30.4693V30.5657C143.94 30.5657 144.166 31.538 144.141 31.7952C144.03 32.962 142.336 33.322 142.574 34.8665C142.711 35.736 144.571 36.7148 145.382 36.8241C146.824 37.025 147.835 36.2198 148.917 36.2776C150.109 36.3355 150.025 37.8607 150.167 38.7302L149.871 38.7816C149.832 39.1433 150.019 39.4904 149.98 39.8504C149.961 40.0433 149.787 39.9469 149.762 40.1413C149.729 40.3792 149.819 41.4544 149.768 41.5187L149.464 41.4158C149.278 42.1246 148.377 42.626 148.093 43.3477L147.231 48.0085C147.437 47.9057 147.514 47.4878 147.565 47.2821C147.72 46.6569 147.771 46.006 147.835 45.3695L148.035 45.4724C148.099 44.9179 148.294 42.8703 149.155 43.7977C149.909 44.6093 149.813 46.6954 149.052 47.5007C151.075 47.4685 150.746 46.644 151.371 45.3052C151.712 44.5707 152.252 43.817 152.595 43.0761C152.781 42.671 153.276 41.5315 153.289 41.1458C153.302 40.6106 152.445 39.8119 152.406 39.1883L152.207 39.4904C152.207 39.0854 152.104 38.6466 151.956 38.2738C151.789 37.8414 151.467 37.0636 151.249 36.6505C151.082 36.3355 150.778 36.1041 150.675 35.7489C149.987 36.1491 149.123 35.646 148.519 35.7489C147.61 35.8903 146.779 36.4384 145.666 36.3548C145.182 36.3162 143.798 35.6717 143.386 35.3889C142.827 35.0031 142.943 34.0051 143.335 33.5213C143.753 33.007 144.359 32.5554 144.552 31.7952C144.687 31.2616 144.43 30.7907 144.546 30.1671C144.732 29.169 145.544 28.4667 145.872 27.6358C146.129 26.98 145.981 26.3227 146.528 25.7554C147.109 25.1575 147.945 24.8618 148.718 25.2989C149.117 25.5239 149.155 25.9306 149.631 26.0077C151.088 26.2327 151.648 25.5947 152.775 25.5046C153.456 25.4532 154.114 25.6075 154.551 26.162C155.325 27.1408 155.293 27.5779 156.585 28.2803C157.519 28.7881 158.061 28.576 158.859 28.846C159.052 28.9119 159.187 29.1112 159.277 29.124C159.928 29.2462 161.795 28.7881 162.613 28.7431C166.702 28.5117 170.242 30.1285 172.644 33.4185C174.44 35.871 174.299 38.2673 174.982 41.0221C175.072 41.3773 175.394 41.5508 175.445 41.8787C175.503 42.2275 175.137 41.8144 175.04 41.9816C175.227 42.2339 176.476 43.2705 176.36 43.4505L175.953 43.3991C176.238 43.8684 177.081 44.4679 177.228 44.9693C177.492 45.8581 176.662 47.6614 176.161 48.4216L182.65 48.9294C182.612 49.1159 182.451 49.1159 182.296 49.1352C181.517 49.2252 180.481 48.9487 179.856 49.0194C179.759 49.0323 179.386 49.3361 178.942 49.3361C177.847 49.3361 176.701 49.2975 175.613 49.3361C175.053 49.3618 174.421 49.5096 173.829 49.4261C173.842 49.5675 174.28 49.5996 174.395 49.6125C174.666 49.6446 176.257 49.6575 176.257 49.8761C175.883 50.1332 175.169 50.0368 174.678 50.0304C170.127 49.9854 165.472 49.8375 160.894 49.6318L159.206 49.8246C159.568 49.9532 160.063 49.7796 160.365 49.8246C160.513 49.8439 160.603 49.9918 160.758 49.9982C161.39 50.0304 162.213 49.8889 162.915 49.9211C163.372 49.9404 163.843 50.1075 164.332 50.0239C164.686 50.0561 164.57 50.4177 164.422 50.6363C163.604 50.5784 162.703 50.752 161.898 50.707C160.939 50.6491 159.864 50.3856 158.852 50.4241L154.641 50.5334C154.281 50.2554 155.646 50.3277 155.704 50.3277L156.67 50.1268C155.64 50.2168 154.712 49.7218 153.675 49.8246L154.288 50.0239L154.436 50.2297C154.043 50.2698 153.669 50.4113 153.27 50.437C150.205 50.662 147.179 50.4177 144.141 50.3277C143.116 50.2956 142.073 50.3727 141.042 50.3277L142.054 50.6813L141.19 50.9384C140.521 50.7777 139.844 50.8999 139.163 50.8291C138.983 50.8099 137.617 50.5591 138.389 50.3856C138.867 50.2827 139.626 50.4306 140.122 50.4241L139.458 50.2232L133.574 50.1204L135.093 50.4691C135.235 50.4884 137.579 50.527 137.277 50.8291C136.503 50.9641 135.678 50.9641 134.887 50.9384C134.553 50.9256 133.522 50.887 133.284 50.8291C133.085 50.7841 133.432 50.7327 132.768 50.7327C131.971 50.7327 131.172 50.7199 130.381 50.7263L130.426 50.527L130.824 50.6299L131.643 50.4241C131.204 50.437 130.76 50.4048 130.323 50.4241C129.208 50.4627 128.043 50.572 126.986 50.6363C126.272 50.6813 124.978 50.8484 124.346 50.7327C124.173 50.7006 124.063 50.6234 124.095 50.4306C124.682 50.2763 125.325 50.3856 125.904 50.3084C126.047 50.2891 126.182 50.3341 126.227 50.1268C125.57 50.0947 124.888 49.8825 124.25 49.8246C123.465 49.7475 122.756 49.8246 122.023 49.8246C119.981 49.8182 117.966 49.7861 115.931 49.6768L115.172 49.8182C116.008 49.7346 116.833 49.9532 117.658 50.0239C118.179 50.0689 120.465 50.0882 120.696 50.3341C120.774 50.4113 120.832 50.7134 120.954 50.8356C120.465 50.7841 119.827 50.9513 119.383 50.9449C118.905 50.9384 118.275 50.7584 117.78 50.7713C116.653 50.797 115.133 51.0927 114 50.9449C113.807 50.9191 113.439 50.6556 112.886 50.6877C108.938 50.887 104.438 51.3 100.503 51.1442C99.3892 51.0992 97.7283 51.0156 96.7363 50.8677C96.3825 50.8163 95.2683 51.2534 95.1783 50.6363C95.45 50.6556 95.7008 50.4627 95.9516 50.437C96.5562 50.3727 97.7155 50.4177 98.3731 50.4306C99.6095 50.4434 101.116 50.7584 102.229 50.7391C103.433 50.7263 105.087 50.2956 106.395 50.2232C107.316 50.1718 108.443 50.3406 109.339 50.2232C109.487 50.2039 109.654 50.1461 109.487 50.0239C108.347 50.1332 107.11 49.6832 105.983 49.7089C105.481 49.7218 105.01 49.9789 104.464 50.0239C100.831 50.3148 96.4083 50.0882 92.7006 50.1139C92.4739 50.1139 91.3291 50.0497 91.5735 49.7154C91.7921 49.4196 94.3358 49.4325 94.8245 49.4132C94.9467 49.4132 95.204 49.4904 95.1783 49.3103C94.7409 49.3553 94.3422 49.193 93.9097 49.1995C93.6203 49.1995 93.3694 49.3103 93.1057 49.3168C90.5493 49.3296 87.9864 49.0644 85.4427 48.9037C85.4106 48.6594 85.4427 48.743 85.5842 48.6916C86.2997 48.4216 87.5362 48.7109 88.3272 48.5951C88.4253 48.5823 88.779 48.4344 88.7919 48.2994L85.089 48.195L82.9072 47.8928C84.2063 47.7514 85.5071 47.7899 86.8142 47.7899C89.628 47.7899 92.2102 48.0214 95.0239 47.6935C95.2812 47.6614 95.5529 47.7064 95.823 47.6807C96.7298 47.5842 96.8665 46.7469 97.5096 46.2261C98.0049 45.8195 98.8554 45.5302 99.4857 45.4659C100.426 45.3759 101.669 45.826 102.197 44.8279C102.796 43.682 102.398 38.8524 102.164 37.4171C102.023 36.5284 101.753 35.6782 101.515 34.8215C101.431 34.7058 101.386 34.6801 101.258 34.7637C101.039 34.9115 100.574 36.0269 100.298 36.3419C100.195 36.4576 100.06 36.6377 99.8925 36.6441V36.3419L98.1673 38.2673V37.6614C97.9148 38.1259 97.4132 38.2866 97.0016 38.5759L97.2524 37.7643C96.8601 38.0616 96.2282 39.1047 95.8294 39.2847C95.7844 39.304 95.6622 39.3104 95.6815 39.2333L95.9323 38.6724C95.6429 38.7752 94.7216 39.9147 94.5609 39.7861C94.6059 39.6576 94.9339 39.2333 94.6638 39.1818C94.4065 39.6254 93.6717 40.069 93.1379 40.0963C93.9692 40.9771 93.4466 42.2596 93.9418 43.2962C94.1428 43.7141 94.9918 44.2043 94.6123 44.6479L94.2521 44.5579L94.5544 45.1622C93.7103 45.0658 95.0239 46.0381 94.8567 46.1795H94.1492L94.7538 46.7405C94.2521 47.1969 93.7875 47.1069 93.1315 47.094L93.2344 47.3978C92.0108 47.5392 91.3162 47.1519 90.4399 46.3869C89.017 45.1493 85.6244 40.5399 85.4234 38.7238C85.044 35.331 87.1631 34.0179 88.7533 31.403C89.8097 29.6705 90.7808 27.9524 90.4978 25.8406C90.3949 25.0546 89.3386 25.3504 88.7662 25.2861L88.7147 25.5818C87.1567 25.1639 86.3962 26.89 84.9154 26.8049L85.0183 27.1086C84.761 27.4558 82.1081 26.657 81.6064 26.612C80.132 26.4706 78.6833 28.4024 76.442 28.2288C75.63 28.1645 74.9354 27.6036 74.2907 27.5329C74.0785 27.5072 73.9177 27.6101 73.7312 27.5972C73.035 27.5329 71.3869 25.9241 71.3548 25.2218C71.3548 25.0803 71.5606 24.4616 71.6442 24.3394C72.0059 23.8123 72.9256 23.0971 73.3967 22.4397C73.8405 21.829 75.0898 19.8457 75.3278 19.2012C75.7522 18.0746 75.0126 17.6825 75.2249 16.768C75.3728 16.1299 76.5899 14.0438 76.9822 13.3543C77.2733 12.84 77.9871 12.0798 78.0965 11.5189C78.1801 11.0753 77.9293 10.4951 77.91 10.0258C77.8456 8.66772 78.283 8.15824 79.5837 7.8368L79.7895 8.7513C80.0806 8.42182 79.886 7.92681 79.9632 7.50894C80.3314 5.54495 83.2287 6.30355 84.1613 7.4109L84.6259 7.30161C86.8335 6.34212 89.1392 5.56424 91.3355 4.57903C96.77 2.15057 99.2799 -1.24864 105.932 0.464623C108.392 1.09464 110.001 1.75841 112.654 1.9577C116.659 2.25985 120.471 1.33411 124.391 2.09271C128.313 2.85291 134.379 8.507 137.108 11.5912C137.553 12.0926 139.87 15.2733 139.671 15.7313L139.709 15.7506ZM105.443 1.67484L104.02 1.26822C104.187 1.63626 103.885 1.46912 103.84 1.50769C103.788 1.54626 103.775 1.66841 103.711 1.71341C103.536 1.84199 103.285 1.8677 103.208 2.07985C103.542 2.18271 103.814 1.9127 104.078 1.88699C104.509 1.83556 105.186 2.04771 105.443 1.68127V1.67484ZM110.819 3.79954C110.522 3.52311 110.175 3.74811 109.975 3.69025C109.808 3.63882 109.763 3.31578 109.602 3.23863C109.358 3.12292 108.604 3.16149 108.199 3.02006C107.863 2.90434 107.625 2.6279 107.29 2.50575C106.253 2.13771 104.785 2.04128 103.917 2.83362C103.808 3.27721 105.042 2.73719 105.231 3.13577L104.419 3.59382C104.882 3.7224 105.732 3.20649 105.964 3.67097L106.144 3.59382L105.944 3.99883L106.35 3.79954L106.253 4.20455C106.93 3.8124 107.515 3.84454 108.179 4.25598L108.585 4.70761C108.218 4.69475 107.779 4.52117 107.683 4.9969C108.076 5.26691 108.128 5.48066 108.687 5.46781L109.195 6.2264C109.099 6.3164 108.064 5.7121 107.883 5.6671C107.683 5.61567 107.612 5.5771 107.477 5.76996C107.83 6.14283 108.404 6.14926 108.797 6.4723C109.461 7.01232 109.879 8.29968 110.877 8.65486C111.237 8.67415 110.697 8.23539 110.651 8.16467C110.438 7.82395 110.426 7.51537 109.911 7.28875C109.892 7.02517 109.95 7.18589 110.091 7.21161C110.368 7.26304 110.561 7.39161 110.826 7.44465C110.897 7.37233 110.445 6.69088 110.368 6.53016C110.155 6.06568 109.995 5.46138 109.602 5.06119C109.454 4.9069 109.086 4.88761 108.99 4.73332C108.842 4.50831 109.08 4.26884 108.906 4.03741C108.79 3.88312 107.961 3.61311 107.98 3.53596L108.231 3.27078L109.892 3.93455L110.819 3.78669V3.79954ZM99.7639 2.5829C99.6545 2.49933 98.4888 2.86577 98.4438 3.1872C98.6239 3.1872 100.002 2.77576 99.7639 2.5829ZM122.872 3.01363C122.48 2.82076 120.928 3.32864 120.42 3.41382C119.261 3.60668 118.063 3.58739 116.974 4.09527L116.91 4.50831C117.006 4.61117 118.23 4.30742 118.333 4.70761L118.031 4.75904L118.333 5.11262C117.876 4.91975 116.897 5.01619 116.813 5.6221C117.096 5.27334 119.029 5.6221 118.738 6.02711C118.166 6.3614 116.891 5.58995 116.498 6.1814C116.434 6.28426 116.498 6.40641 116.485 6.41926C116.415 6.49159 115.77 6.61373 115.796 6.69088L117.116 6.63945L116.91 6.33569L118.88 6.44016L120.767 7.45108C121.179 6.9866 119.312 6.43373 119.145 6.12997C120.013 6.12997 120.838 6.43373 121.68 6.63302C121.436 6.25212 120.883 6.07211 120.465 5.92425C120.232 5.68638 121.005 5.6671 121.089 5.67996C122.152 5.8021 122.158 6.72302 123.103 6.53659C122.795 7.28875 122.068 7.0316 121.378 7.04446C121.881 7.46394 122.582 7.88823 123.259 7.95252C123.369 7.96538 123.639 8.02324 123.613 7.85609L123.129 7.77895L122.293 7.14732C123.362 7.19875 124.346 7.45751 125.235 8.06181C125.255 7.90109 125.165 7.54751 125.01 7.48965C124.946 7.46394 124.817 7.55394 124.727 7.51537C124.391 7.3659 124.044 7.16018 123.71 6.99946C124.14 6.71016 124.663 6.87731 125.133 6.94803C125.017 6.59445 124.669 6.39998 124.346 6.25854L123.11 6.18783C123.536 5.75067 124.584 5.61567 125.139 5.77639C125.415 5.85996 125.628 6.21997 125.943 6.23283L125.358 5.65424L123.716 5.31834C123.665 5.09333 123.748 5.15119 123.845 5.0869C124.449 4.64332 125.107 5.11262 125.647 5.42281L125.042 4.71403L125.647 4.91333V4.71403C124.952 4.36527 124.501 4.28813 123.722 4.40545C123.671 4.01169 124.115 4.16598 124.301 4.17241C124.398 4.17241 124.624 4.2817 124.533 4.05026C124.346 3.58097 122.75 3.78669 122.306 3.49096C122.383 3.30935 122.898 3.38167 123.071 3.38167C123.246 3.38167 123.369 3.42025 123.523 3.49096C123.594 3.17435 123.213 3.30935 122.981 3.1872C122.923 3.15506 122.917 3.02006 122.891 3.0072H122.872V3.01363ZM116.194 4.30742C116.098 3.80597 115.384 3.7674 114.979 3.79954C114.927 4.08241 115.037 3.97312 115.198 4.03098C115.339 4.08241 116.149 4.34599 116.188 4.30742H116.194ZM95.5014 4.10812C95.3857 4.04384 94.4001 4.63046 94.5866 4.81689C94.921 4.75261 95.1075 4.43117 95.5014 4.51474V4.10812ZM115.995 5.22191C115.776 4.78475 115.307 4.79118 114.882 4.81689C115.12 5.11905 115.635 5.24119 115.995 5.22191ZM96.3118 5.22191C96.0545 4.77832 95.159 5.3312 94.8438 5.53209C94.6959 5.62853 94.4322 5.71853 94.4837 5.93068C95.1011 5.68638 95.6172 5.27334 96.3118 5.22191ZM107.47 6.63945C107.522 6.54945 107.297 6.4723 107.219 6.43373C106.969 6.30355 105.848 5.78924 105.655 5.77639C105.475 5.76353 105.353 5.85353 105.237 5.98211C105.173 6.25212 105.835 6.21354 106.041 6.28426C106.401 6.40641 106.692 6.66516 107.033 6.82588L107.464 6.63302L107.47 6.63945ZM92.5575 5.82782C92.4481 5.72496 91.3677 6.41283 91.1876 6.53659C91.0316 6.63945 90.8001 6.71016 90.8322 6.9416L92.3195 6.14926L92.551 5.82782H92.5575ZM98.2444 6.44016L99.46 5.98211C99.4728 5.60281 98.2573 6.10425 98.2444 6.44016ZM92.0944 7.49608C92.2295 7.4109 93.318 6.59445 93.1701 6.43373C92.9385 6.65873 92.551 6.49159 92.3645 6.58159C92.178 6.67159 91.85 7.13446 91.5928 7.23732C91.4255 7.43661 91.8564 7.6568 91.9915 7.65037C92.0558 7.62466 92.0494 7.51537 92.088 7.48965H92.0944V7.49608ZM96.8215 6.54302C96.2989 6.62016 95.6301 6.91588 95.3005 7.35304C95.823 7.3209 96.4083 6.86445 96.8215 6.54302ZM94.8953 6.74231C94.4258 6.79374 93.9418 6.83231 93.5109 7.02517C93.3437 7.10232 92.2938 7.88823 92.461 8.05538C93.0028 7.97824 92.752 7.83038 92.8549 7.7018C93.0286 7.48322 93.5559 7.16661 93.8325 7.15375C93.9949 7.15375 94.1492 7.26304 94.31 7.23089C94.4515 7.20518 94.8181 6.90303 94.8889 6.74231H94.8953ZM109.093 8.05538C109.093 8.05538 109.183 7.80466 109.15 7.65037C108.983 6.88374 108.276 6.68445 107.573 6.74231L108.591 7.49608L109.499 8.77058C109.266 8.99559 108.72 8.39611 108.449 8.24825C108.321 8.17753 107.11 7.63108 107.168 7.81109C107.432 8.40896 108.076 8.42825 108.52 8.68701C108.694 8.78987 108.945 9.14988 109.054 9.16917C109.183 9.18845 109.454 8.89916 109.667 8.89916C109.853 8.89916 109.905 9.13059 110.104 9.07916C109.995 8.8413 109.95 8.56486 109.757 8.36396C109.538 8.13896 109.112 8.09396 109.086 8.06181H109.093V8.05538ZM119.138 7.6568L117.617 7.04446C117.347 7.28875 118.86 7.81109 119.008 7.8368C119.203 7.86895 119.203 7.72752 119.138 7.6568ZM129.89 8.46843C129.935 8.27396 129.787 8.22896 129.691 8.11324C129.286 7.63751 128.724 7.10875 128.068 7.05089L129.131 7.75966L129.89 8.46843ZM106.459 7.85609C106.427 7.63108 105.128 6.88374 105.141 7.30161C105.141 7.43661 106.253 7.76609 106.459 7.85609ZM128.777 8.57129C128.913 8.42182 127.843 7.65037 127.695 7.57323C127.547 7.49608 127.432 7.42376 127.256 7.45751L128.777 8.57129ZM90.9352 12.2148L91.5092 11.9705C91.5477 11.056 91.8179 9.85865 91.6056 8.96345C91.4641 8.38325 90.4335 7.6118 89.8225 7.69537C89.6087 7.72109 88.4189 8.31896 88.2629 8.47486C87.8899 8.8413 87.5876 9.79436 87.3947 10.2894C87.877 10.0387 88.3658 8.83487 88.7662 8.66772C88.9977 8.57129 89.0106 9.05988 88.9141 9.16917C89.3193 9.09845 89.6022 9.18202 89.9254 8.86701L89.8225 9.37489C90.2406 9.50507 90.1312 8.95059 90.53 8.96987L90.3306 9.37489C91.0702 9.37489 91.4384 9.49864 91.141 10.2894L91.3419 10.1865C91.1345 10.8696 91.3098 11.5719 90.9352 12.2148ZM121.978 8.87344C122.068 8.38968 121.616 8.51343 121.333 8.35111C120.947 8.13253 120.684 7.62466 120.155 7.75966L120.219 8.06824C120.851 8.33182 121.269 8.77058 121.984 8.87344H121.978ZM94.3872 7.95895C93.7103 7.61823 93.2022 8.36396 92.8678 8.86701L94.3872 7.95895ZM118.23 8.56486C117.889 8.04895 117.219 7.77895 116.608 7.85609L118.23 8.56486ZM102.5 8.2611C102.197 7.75323 101.637 8.0361 101.18 8.06181C101.431 8.45397 102.1 8.19039 102.5 8.2611ZM120.2 8.73201C119.968 8.43468 119.923 8.16467 119.492 8.06181C119.409 8.04895 119.415 8.552 119.138 8.46843C119.113 8.59701 119.164 8.55843 119.261 8.59701C119.511 8.68058 119.859 8.77701 120.122 8.85416C120.283 8.89916 120.581 8.91844 120.193 8.73844H120.2V8.73201ZM105.751 8.96987C105.462 8.41539 104.779 8.38968 104.232 8.36396C104.309 8.51986 104.676 8.65486 104.843 8.71915C105.115 8.82201 105.469 8.8863 105.758 8.9763L105.751 8.96987ZM108.282 10.5996C108.166 9.98723 107.805 9.5115 107.219 9.27845C106.808 9.62721 107.38 9.65936 107.58 9.83294C107.843 10.0579 107.954 10.4308 108.282 10.5996ZM106.028 10.3087C105.462 9.87794 105.231 9.41346 104.425 9.37489C104.367 9.63364 104.496 9.5565 104.612 9.64007C105.068 9.95508 105.571 10.2251 105.996 10.5931L106.022 10.3087H106.028ZM122.853 9.92937C122.621 9.75579 122.287 9.47132 121.984 9.63364L123.504 10.696L122.853 9.92937ZM110.213 10.4951C110.155 9.98723 109.686 9.67864 109.202 9.68507C109.003 9.87151 110.078 10.463 110.213 10.4951ZM118.732 10.696C118.584 10.3472 118.153 9.86508 117.786 9.75579C117.521 9.67864 117.219 9.98723 116.904 9.88437C116.878 10.1479 116.904 10.0451 117.058 10.0901C117.322 10.1672 117.638 10.1222 117.921 10.2379C118.089 10.3087 118.648 10.7731 118.732 10.696ZM120.433 10.4115C120.335 10.2637 119.396 9.63364 119.138 9.68507L120.303 10.696C120.497 10.7796 120.497 10.5096 120.433 10.4115ZM122.383 11.101C122.512 10.9467 121.648 10.0322 121.372 10.0901C121.205 10.2508 122.267 10.9724 122.383 11.101ZM109.905 11.8162C109.712 11.191 109.525 10.4565 108.79 10.2958C108.591 11.0174 109.48 11.3389 109.905 11.8162ZM118.089 11.1396C117.883 10.9274 117.412 10.6446 117.109 10.5996L118.179 11.6105C118.526 11.6555 118.153 11.2039 118.089 11.1396ZM106.724 11.1396C106.57 11.011 106.33 10.9789 106.202 10.7989C105.983 10.7024 106.105 11.0882 106.112 11.101C106.266 11.3067 106.57 11.416 106.763 11.6555C107.059 12.0219 107.11 12.5957 107.573 12.8207C107.502 12.2341 107.181 11.5124 106.724 11.1332V11.1396ZM108.655 11.4482C108.494 11.3517 108.327 11.3324 108.192 11.2489C108.128 11.2103 107.348 10.4051 107.547 10.9789C107.798 11.7133 109.724 12.0734 110.059 13.0329L110.819 13.4314C110.967 13.2964 109.969 12.2919 109.808 12.1634C109.454 11.8805 109.015 11.6619 108.655 11.4417V11.4482ZM125.634 12.0155C125.756 11.8741 124.798 11.0303 124.637 10.9339C124.494 10.8567 124.398 10.7603 124.218 10.7989L125.634 12.0155ZM111.932 12.3177C111.829 11.6876 111.244 11.0624 110.612 10.9017C110.438 11.0753 111.829 12.1184 111.932 12.3177ZM79.1721 12.5234L79.6802 12.0669L80.2864 11.101C79.8088 11.461 79.2557 11.8805 79.1721 12.5169V12.5234ZM111.225 15.0611C111.154 14.5854 110.813 14.2238 110.406 14.0052C110.303 13.9473 110.162 14.0566 110.059 13.9538C109.75 13.6388 109.499 12.7564 108.996 12.4719L107.875 11.8162C107.909 12.4977 108.533 12.2984 108.893 12.6793C109.396 13.7288 110.29 14.4166 111.225 15.0611ZM106.525 12.2534C106.375 12.1184 106.15 12.0605 106.002 11.9126C105.835 12.0991 106.24 12.2984 106.356 12.4719C106.583 12.8014 106.872 13.3543 107.033 13.7223C107.136 13.9538 107.033 14.4552 107.47 14.4488C107.297 13.658 107.155 12.8336 106.525 12.2534ZM77.9485 15.7699C77.8328 15.5047 77.7942 15.0933 77.8521 14.8104C77.91 14.5259 78.1801 14.4745 78.238 14.2816C78.3087 14.0438 78.238 13.7288 78.3023 13.4314C78.373 13.1036 79.1142 12.1955 78.7155 12.0219C78.5145 11.9319 78.5402 12.3948 78.4502 12.57C78.3087 12.8464 77.91 13.2 77.7106 13.5536C77.5498 13.8445 77.344 14.4295 77.2395 14.7654C77.1559 14.7654 77.0465 14.6883 76.9887 14.7011C76.8665 14.7204 76.2876 16.0206 76.2362 16.2392C76.0818 16.9608 76.3391 17.6825 76.3391 18.3639C76.3391 19.1884 74.974 21.4931 74.4852 22.2983C74.0913 22.9428 72.8227 23.74 73.5382 24.3973L73.9948 23.6885C74.2778 24.6609 75.0834 25.4339 74.5045 26.5284C75.1477 26.3806 74.8647 25.4725 75.4178 25.3118L75.1091 24.5709C75.4435 24.1594 75.6172 24.4552 75.778 24.4616C75.9403 24.468 76.4934 24.1594 76.5385 24.198C76.4291 24.5066 76.2362 24.7187 76.1076 25.0482C76.0175 25.2732 76.2169 25.4982 75.8294 25.5175V25.6139C76.1847 25.5496 76.0754 26.2584 76.1397 26.3227C76.9822 26.4706 77.2604 26.2006 77.8264 25.6782C77.8649 25.6397 77.8264 25.5046 77.9293 25.4146C78.2058 25.1896 78.6174 25.3182 78.6512 25.2989C78.6833 25.2796 79.0949 24.8425 79.185 24.7637C79.3393 24.6352 79.7767 24.4359 79.8281 24.3009C79.8796 24.1851 79.7124 23.883 79.9825 23.6885H79.4744C79.3908 23.4828 79.796 23.3864 79.5773 23.2321C79.3008 23.0328 77.1237 23.2064 78.2637 22.3369C78.3023 22.3112 78.4116 22.3626 78.4373 22.3369C78.6576 22.1504 78.7798 21.7454 78.7669 21.4545L79.0692 21.6538C79.0692 21.371 78.9663 21.1845 79.275 21.1009L78.6705 20.18L78.4631 20.1929C78.1544 20.5015 77.7556 21.1202 77.344 21.1459L77.4469 21.3452L76.7378 21.4481V21.0431L77.0401 21.1459C77.1237 20.7795 77.188 20.6236 76.8407 20.3857L77.2411 20.2315L77.0401 19.4263L77.5498 19.632C77.4791 19.227 77.8971 18.8927 77.5241 18.5375C77.3697 18.3896 77.0465 18.5246 77.143 18.1068L76.9436 18.2096C76.8986 18.1453 76.9694 17.0958 76.9179 16.8387C76.9051 16.7872 76.7378 16.8258 76.725 16.6394C76.6928 16.1556 77.0273 15.389 77.582 15.4597C77.6977 15.4726 77.6849 15.8535 77.9485 15.7699ZM120.761 12.93C120.696 12.4848 120.225 12.0026 119.749 12.0155L120.761 12.93ZM112.545 14.1466C112.281 13.4057 111.919 12.5828 111.025 12.5234L112.545 14.1466ZM80.9938 13.4379L79.8346 14.3588L79.6738 14.759L80.9938 13.4379ZM105.745 13.5343C105.134 13.6002 106.015 14.3331 106.099 14.4488C106.35 14.8104 106.557 15.2154 106.808 15.5754C106.891 15.6992 106.808 15.8278 107.072 15.7635C106.911 14.8683 106.176 14.2945 105.751 13.5343H105.745ZM79.7767 13.7416L79.4744 13.8123C79.4165 14.3588 78.6962 14.6368 78.5595 15.2604C78.7669 15.4661 79.9053 13.8509 79.7767 13.7416ZM109.705 14.1466L108.893 13.7416C108.713 13.9345 109.744 14.7783 109.86 14.9583C110.033 14.7075 109.564 14.4359 109.506 14.3009L109.705 14.1531V14.1466ZM85.9653 14.5516L84.142 14.2495C84.097 14.5131 84.1806 14.4295 84.3623 14.4809C84.6774 14.5645 85.2691 14.624 85.618 14.6561C85.7273 14.6561 85.9974 14.7333 85.9717 14.5581L85.9653 14.5516ZM105.951 15.7699C106.105 15.5111 105.353 14.2302 105.141 14.4488L105.951 15.7699ZM111.025 17.5908C111.038 17.0573 110.606 16.813 110.374 16.4706C109.917 15.7956 109.641 15.2154 108.797 14.8554C108.816 15.4661 109.3 15.4983 109.615 15.8149C110.052 16.2456 110.432 17.1923 111.032 17.5908H111.025ZM79.5709 15.4661C79.2943 15.4019 78.5402 15.7249 78.5531 16.027L78.7477 16.0849L78.7605 16.2778L78.2508 16.5799C78.4116 16.6121 79.603 16.1749 79.468 16.0785L79.1657 16.027L79.5709 15.4661ZM85.663 16.3742C85.4041 15.6478 84.3816 15.6478 83.7368 15.4597V15.7635C84.5359 15.622 84.999 16.1106 85.663 16.3678V16.3742ZM86.9814 16.072C87.1181 15.9049 85.8238 15.524 85.663 15.569C85.8945 16.027 86.4605 15.7699 86.6342 16.1813L86.975 16.072H86.9814ZM112.035 17.3916C112.082 17.0894 110.961 15.5111 110.717 15.7699L110.871 16.2713L112.035 17.3851V17.3916ZM106.15 17.6953C106.195 17.1023 105.674 16.1363 105.036 16.072L106.15 17.6953ZM108.958 16.5156C108.842 16.3871 108.199 15.9242 108.398 16.4128C108.475 16.5992 108.79 16.8001 108.932 16.993C109.15 17.2951 109.144 17.6632 109.596 17.7982C109.667 17.721 109.08 16.6522 108.951 16.5156H108.958ZM85.9653 17.2887C86.0167 17.0701 85.8431 17.0637 85.7338 16.9608C85.3077 16.5735 84.8446 16.2713 84.2401 16.3742C84.3108 16.6522 84.7867 16.5671 84.9411 16.633C85.3012 16.7937 85.6244 17.0894 85.9653 17.2823V17.2887ZM88.16 16.9223C87.8256 16.6121 87.2274 16.858 86.8078 16.4963L86.4734 16.7358L87.2725 16.948L87.742 17.2887L87.8384 16.9865C88.1793 17.3015 88.6697 17.5844 88.7018 18.1003C89.1842 17.9203 88.3787 17.128 88.1536 16.9223H88.16ZM87.3882 18.306L86.1711 17.4944V17.9975L86.4219 17.7982C86.7178 18.1003 86.9557 18.4025 87.3882 18.5053V18.306ZM88.6054 19.1177C88.6182 18.822 88.4446 18.5182 88.2565 18.2996C88.1278 18.1453 87.3432 17.3723 87.1889 17.4944C87.3175 18.2996 88.07 18.6082 88.6054 19.1177ZM80.1577 19.1948C80.3571 18.8798 80.2928 18.5375 80.1835 18.2032L79.9825 18.8605L78.9663 19.1112L79.3715 20.3279L79.6738 20.225L79.4744 19.317L80.1642 19.1884H80.1577V19.1948ZM109.403 19.5227C109.39 19.1691 109.118 18.7255 108.913 18.441C108.822 18.3125 108.81 18.1582 108.591 18.2096C108.507 18.2932 109.176 19.4263 109.403 19.5291V19.5227ZM111.102 18.2225C111.045 18.1903 110.593 18.1196 110.618 18.2996C111.025 18.2289 111.514 19.3363 111.578 19.317C111.829 19.227 111.643 19.1048 111.591 19.0084C111.533 18.8991 111.147 18.2482 111.102 18.2289V18.2225ZM87.0795 19.2141C87.0474 18.9827 86.0425 18.3253 85.9653 18.4025C86.0425 19.0212 86.5505 19.1562 87.0795 19.2141ZM112.345 22.0604C112.172 21.6088 111.9 20.7409 111.328 20.7409C111.218 20.8245 112.918 22.6647 112.853 22.9685C113.046 22.9878 112.937 22.7628 112.905 22.6647C112.828 22.4397 112.66 22.2147 112.648 21.9576L112.345 22.0604ZM127.256 24.7975C127.166 24.153 126.157 23.4057 125.544 23.74C124.612 24.2494 124.552 25.5946 124.624 26.522H124.927C124.952 26.1106 124.882 25.6847 124.952 25.2796C125.023 24.8746 125.319 24.0051 125.84 24.0887L125.641 24.4937H126.15L126.298 23.9859L127.263 24.7975H127.256ZM112.345 25.2025C112.152 24.7975 112.21 23.8123 111.739 23.6821C111.848 24.1659 111.958 24.8746 112.345 25.2025ZM134.463 27.8367C135.305 27.3272 135.492 24.7444 134.54 24.3651C133.921 24.1209 133.323 24.3459 132.813 24.693C132.537 24.8875 131.803 25.6332 131.525 25.7618C131.416 25.8084 130.657 25.4532 130.406 25.8663L131.416 26.0206L130.811 26.4256L131.861 26.3099C132.517 25.5818 133.027 24.5323 134.159 24.7509C134.405 24.9261 134.133 25.2925 134.159 25.3118L134.765 25.2089C134.829 25.2732 134.765 25.7939 134.791 25.8727C134.804 25.937 134.965 25.9177 134.977 25.982C135.029 26.342 134.514 27.4108 134.469 27.8431H134.463V27.8367ZM73.2874 24.9968L72.1732 24.7911C72.2761 25.3182 72.6941 25.3825 73.1459 25.2089C73.281 25.1575 73.3196 25.2411 73.2874 24.9968ZM128.983 27.1279C129.048 26.5156 129.208 26.8386 129.388 26.7663C129.479 26.7341 129.716 26.477 129.691 26.3677L129.491 26.2134C129.646 26.5477 128.66 26.8579 128.403 26.9029C128.178 26.9415 127.863 26.9929 127.766 26.7213L128.474 26.4641L128.268 26.3548L128.377 25.9048C127.966 26.0784 127.638 26.1106 127.263 26.4127L127.792 25.6204C128.371 25.7168 128.287 25.2989 128.737 25.0932L128.79 25.3954L129.44 25.1832C129.524 25.1961 129.434 25.5239 129.749 25.2925L129.697 25.4982L131.32 25.1961C129.954 24.9968 128.699 24.5644 127.366 25.1446C126.035 25.7232 124.475 27.5844 124.327 29.0983C124.276 29.5933 124.411 30.2314 124.308 30.7007C124.211 31.1459 123.69 31.448 123.497 31.8145C123.181 32.4268 123.136 33.3477 123.562 33.9199C123.851 34.3072 124.031 34.0758 124.25 34.2108C124.468 34.3458 124.637 34.7508 125.133 34.9774C126.761 35.7167 128.223 34.4358 129.691 35.4982C129.35 36.4512 128.634 37.3014 128.577 38.3766L128.274 38.2738L128.12 39.799L127.766 39.5933L127.457 41.8273L127.205 41.7566L127.07 41.8851V44.3972C126.498 44.5065 126.678 44.9308 126.523 45.3952C126.42 45.6845 126.247 45.9481 126.163 46.2519L125.229 47.5007L128.816 47.3142C129.196 47.8349 129.524 48.6273 130.297 48.518C130.213 48.1371 129.762 48.0535 129.601 47.7449C129.022 46.6504 129.446 44.4486 130.155 43.4505C130.593 42.8318 131.816 42.0201 132.131 41.4737C132.472 40.8871 131.72 40.1413 131.487 39.5676C131.32 39.1625 131.178 38.7109 131.21 38.2673L131.011 38.3702C130.882 38.2416 130.85 36.9398 130.741 36.6698C130.683 36.5348 130.503 36.5091 130.419 36.3805C130.175 35.9948 129.935 35.1639 129.665 35.0031C128.242 34.1658 126.028 35.4403 124.689 34.3008C124.501 34.1465 124.404 33.9199 124.224 33.7527C124.083 33.6242 123.87 33.6113 123.761 33.5085C122.949 32.7868 124.52 31.2166 124.682 30.5078C124.727 30.3021 124.592 29.9614 124.618 29.6962C124.657 29.3876 124.901 29.2205 124.74 28.801L125.036 28.6338L125.139 29.1433L125.448 28.7753L125.345 27.9267L125.949 28.6338L126.356 27.3143C126.639 27.4622 126.272 28.0103 126.408 28.2288C126.768 27.7001 126.993 26.7727 127.779 26.8129L127.269 27.3658L127.535 27.6101C127.991 27.4043 128.48 26.9286 128.99 27.1151C128.977 27.1279 129.022 27.2436 128.964 27.2886C128.868 27.3722 128.609 27.3015 128.583 27.5201L129.543 27.2179L129.498 27.7258C129.826 27.3851 130.102 27.6615 130.509 27.6229C130.419 27.3851 130.102 27.3336 129.903 27.4236L130.207 26.9158C130.162 26.8772 129.305 27.3851 129.241 26.9158C129.176 27.0122 129.06 27.0572 128.99 27.1151V27.1279H128.983ZM147.822 26.0463C147.887 26.0977 147.938 26.3099 148.003 26.3163C148.358 26.0913 147.9 25.7039 147.597 25.6975C146.986 25.6975 146.567 26.3613 146.631 26.9222H146.935C146.869 26.3934 147.224 25.5561 147.816 26.0398H147.822V26.0463ZM79.6738 26.0141L79.1721 26.0656L77.2411 27.3272C78.1479 27.3658 79.14 26.7213 79.6738 26.0141ZM151.094 27.5329C150.99 27.7901 150.9 27.9974 150.688 28.1903L150.791 28.396L149.612 28.6467L149.522 28.4474C148.95 29.0469 148.105 29.0083 147.539 29.4583C148.099 29.5098 148.647 29.2719 149.13 29.0212C149.181 28.9955 149.194 28.8203 149.329 28.7688C149.593 28.6724 150.057 28.7688 150.328 28.5503C150.527 28.7238 150.366 28.7046 150.231 28.7624C149.839 28.9247 149.406 28.9633 149.027 29.1819C148.905 29.2526 148.692 29.349 149.001 29.3619C149.29 29.1562 149.684 29.214 149.961 29.1048C150.057 29.0662 150.964 28.5953 151.009 28.5567C151.204 28.3896 151.686 27.2886 152.091 26.8772C152.659 26.297 152.755 26.747 152.987 26.6056C153.135 26.5156 153.225 25.9498 153.624 26.7149L153.915 26.6249L153.81 27.1343C153.934 27.1022 154.03 26.9222 154.018 27.1858C153.992 27.5972 153.566 27.8945 153.863 28.351C154.886 27.0765 153.63 25.6396 152.22 26.4063C151.68 26.6956 151.474 27.3722 151.075 27.5393C151.114 27.4493 151.294 27.2693 151.029 27.3401C150.713 27.4236 150.527 27.6872 150.263 27.7901C149.954 27.9138 149.599 27.8817 149.329 27.9717C148.776 28.1581 148.195 28.4924 147.623 28.5438C147.835 28.1774 148.358 28.2031 148.712 28.0617C148.86 28.0038 148.943 27.8286 149.052 27.7836C149.233 27.7065 149.329 27.9717 149.503 27.5329L149.554 27.7322H149.755L150.16 27.2308L149.8 27.3079L149.606 27.025L149.303 27.4301L149.052 27.2308C149.078 27.7515 148.467 27.901 148.035 27.9395C147.861 27.7772 148.712 27.2051 148.943 27.3272V26.9286C149.393 26.9736 150.418 27.0508 150.675 26.6249C149.554 26.252 148.718 26.6634 147.732 27.1793C146.618 27.7708 145.981 28.3896 145.446 29.5612C144.983 30.5785 145.292 30.6493 145.189 31.5316C145.073 32.4718 144.346 33.547 143.573 34.0758L144.282 34.6287C144.385 34.2622 143.997 34.2558 143.875 34.0244L144.887 33.9199C145.015 34.4037 144.726 34.9244 144.481 35.3374C145.06 35.4467 145.538 35.7039 146.129 35.4146C146.451 35.2603 147.109 34.4037 147.218 34.0694C147.276 33.8878 147.179 33.8942 147.064 33.9986L147.012 33.7206L146.708 34.0244L146.76 33.4185C146.509 33.8235 146.117 34.1079 145.699 34.3329C145.827 33.6949 146.605 33.5406 146.612 32.7611L146.207 33.0134V32.3047L146.612 32.0989L146.104 32.2018C146.097 31.8209 145.917 31.4738 145.493 31.4866V31.1845H145.795C145.66 30.8952 145.924 30.5528 145.956 30.3214C145.962 30.2571 145.801 30.1671 145.84 30.0707C145.853 30.0385 146.329 29.5612 146.367 29.5548C146.515 29.5419 146.683 29.6705 146.858 29.6576C147.211 29.6383 147.417 29.2398 147.687 29.0662C148.306 28.6724 148.885 28.3574 149.548 28.1903C149.704 28.1517 149.877 28.036 150.006 27.9395L150.102 28.1453C150.282 28.0038 150.578 27.6808 150.771 27.5908C150.9 27.5329 151.016 27.5586 151.069 27.5393H151.094V27.5329ZM138.312 28.6467C137.74 28.5438 137.244 28.6467 136.69 28.7946L137.142 28.9569C137.707 28.756 138.434 29.1048 138.976 29.3555L139.13 29.1562L138.216 28.9505L138.318 28.6467H138.312ZM126.851 29.6641C126.459 29.5805 126.44 29.9871 126.195 30.1671C125.827 29.8778 126.44 29.5162 126.343 29.1562C125.866 29.3105 125.801 29.9164 125.551 30.3407C125.113 31.0752 124.637 31.8659 124.012 32.4525C124.012 32.5104 124.92 32.9556 125.023 32.8575L124.314 32.2982C124.895 32.0475 125.319 32.2982 125.834 32.5554C126.009 32.6583 125.898 32.6647 125.853 32.7675C125.75 33.0134 125.551 33.2706 125.428 33.5149C125.994 33.682 126.716 34.1594 127.308 33.8235C127.901 33.4892 127.985 32.9942 128.371 32.549C128.39 32.2918 128.332 32.4397 128.191 32.4718C127.74 32.5682 127.522 32.864 127.154 33.1099C127.154 32.6647 127.586 32.4397 127.76 32.0411L127.547 31.9318L127.657 31.4866L126.98 32.2918H126.44C126.51 31.9254 126.903 32.0925 126.928 32.0797C127.115 31.9704 127.451 31.2487 127.347 30.9852C127.109 31.1009 127.109 31.493 126.742 31.3902L127.25 30.4821L126.645 30.9916L126.845 30.18L126.594 30.3793C126.382 30.2378 126.896 29.7091 126.845 29.6705L126.851 29.6641ZM100.272 30.7778L100.066 29.3619L99.9053 30.0707L100.729 31.8916C100.844 31.5573 100.6 31.3002 100.568 30.9337C100.529 30.45 100.857 29.8183 100.471 29.5612L100.272 30.7778ZM164.789 29.5612C164.345 29.7541 164.062 29.4648 163.721 29.4519C163.468 29.439 162.98 29.5741 162.69 29.6191C162.362 29.6705 162.123 29.5741 161.743 29.8633L163.927 30.27C164.37 30.1285 164.615 30 165.092 30.1671C165.131 30.3857 164.988 30.4114 164.834 30.4757C164.409 30.63 163.436 30.4757 163.031 30.5914C162.8 30.6621 162.806 30.953 162.69 30.9852C162.42 31.0495 162.065 30.7586 161.949 31.0816C162.729 31.3323 163.256 30.7714 163.837 30.6814C164.094 30.6428 164.364 30.7007 164.628 30.6621C165.253 30.5721 165.832 30.3535 166.515 30.4693L164.692 29.8633L164.795 29.5612H164.789ZM141.661 29.8633L140.984 29.5998L139.529 29.8183L140.148 29.9164C140.084 30.3921 141.333 30.5335 141.558 30.1735H140.444V29.8698C140.881 29.7283 141.216 29.8055 141.661 29.8698V29.8633ZM149.271 29.7605C149.226 29.5676 149.091 29.5741 148.93 29.5676C148.654 29.5676 147.797 29.7862 147.52 29.8907C147.404 29.9357 147.269 30.0385 147.244 30.1671C147.913 29.9935 148.57 29.7283 149.271 29.7605ZM169.76 31.6923C169.799 31.5059 169.664 31.448 169.548 31.3452C168.999 30.8678 168.048 30.7393 167.358 30.3921C167.036 30.2314 166.515 29.7348 166.154 29.6705L165.298 29.7669L167.628 30.6814C167.319 30.6171 167.03 30.7521 166.753 30.7714C166.599 30.7843 166.451 30.6878 166.282 30.7071C165.71 30.7714 165.337 31.1202 164.782 31.088C164.782 31.2616 164.718 31.3066 164.911 31.268C165.33 31.1973 165.748 30.9273 166.166 30.8871C166.978 30.8164 168.196 30.9016 168.961 31.2166C169.271 31.3452 169.438 31.6345 169.754 31.6923H169.76ZM160.327 30.0707C160.52 30.0707 160.706 29.9678 160.888 29.9614C161.087 29.9614 161.865 30.2314 161.492 29.7733L159.922 29.8633L160.024 30.1671H159.013L160.024 30.27C159.844 30.6171 159.29 30.45 158.968 30.4564L158.897 30.1735C158.737 30.1735 157.88 29.9292 157.892 30.2185C157.892 30.2764 158.1 30.4435 158.222 30.4435C158.904 30.4564 159.258 30.72 159.967 30.7714C160.301 30.7971 159.947 30.5593 160.018 30.4693C161.074 30.1928 162.161 30.8743 163.166 30.2121C162.529 30.1735 162.11 30.4114 161.39 30.3664C161.113 30.3535 160.481 30.3085 160.327 30.0578V30.0707ZM153.527 30.8807C153.649 30.54 152.524 29.7605 152.413 29.8698L152.614 30.225L153.527 30.8807ZM101.489 31.1845L101.695 30.0707C101.47 30.1285 101.553 30.5014 101.438 30.675C101.367 30.7778 101.193 30.8036 101.142 30.8807C100.962 31.1587 101.161 31.7695 101.193 32.0989C101.836 31.9575 101.206 31.6923 101.193 31.6216C101.142 31.4095 101.303 31.1073 101.303 30.8807L101.502 31.1845H101.489ZM90.5686 30.9144C90.7615 30.7457 91.2905 30.4885 91.194 30.1671L89.6215 31.583C89.8289 31.493 90.2277 31.3066 90.3885 31.178C90.4721 31.1137 90.4978 30.9723 90.5686 30.908V30.9144ZM127.663 30.4757C127.702 31.2809 128.724 30.8678 128.673 30.1735C128.422 30.5143 128.068 30.6493 127.663 30.4757ZM161.647 30.8807C161.589 30.6685 161.518 30.7264 161.364 30.7457C160.978 30.7907 160.32 30.8807 159.967 30.9852C159.825 31.0237 159.651 30.998 159.619 31.1909C160.307 31.2359 160.971 30.9659 161.647 30.8871V30.8807ZM168.948 31.7888C168.639 31.3837 167.79 31.3645 167.3 31.3516C167.152 31.3516 167.056 31.223 166.921 31.4352L168.948 31.7888ZM91.0381 31.3902C90.3306 31.538 89.7759 32.2211 89.2035 32.6518C88.8755 32.8961 88.3931 33.0134 88.1986 33.4185C88.2629 33.4699 88.7919 33.1292 88.9012 33.0584C89.628 32.5618 90.3435 31.9382 91.0381 31.3966V31.3902ZM102.094 31.5895C101.843 31.5123 101.836 31.8145 101.817 31.9704C101.772 32.3368 101.894 32.5425 101.881 32.7611C101.881 32.909 101.714 33.0134 101.682 33.1677C101.65 33.322 102.004 33.3477 101.888 33.6177C102.023 33.7849 102.068 33.6049 102.087 33.4699C102.132 33.1356 102.248 32.459 101.888 32.3561C102.209 32.1568 101.959 31.8788 102.087 31.5959L102.094 31.5895ZM147.038 33.1099C146.85 32.4268 147.617 32.4718 147.642 31.8916C147.327 32.324 146.773 32.3304 146.76 32.962L147.038 33.1099ZM118.095 32.639C118.031 32.5682 116.942 31.8209 117.013 32.0475L117.418 32.7033L117.058 32.6068C117.077 32.7997 115.866 32.729 115.667 32.6775C115.519 32.639 114.701 32.0668 114.579 32.1954V33.3092L114.173 32.6004C113.871 33.6177 114.206 34.6351 114.27 35.6396L113.865 35.4403L114.07 36.3034L113.858 36.4062L114.263 37.5714L113.755 37.1664C113.839 37.7643 114.173 38.1902 113.852 38.7881L113.55 38.5888V39.0983L113.349 38.9938C113.297 39.6704 113.524 40.6299 112.943 41.1265C112.931 40.9321 112.982 40.4821 112.744 40.4178C112.525 40.7971 112.538 41.4415 112.422 41.7694C112.352 41.9623 112.12 41.8787 112.022 42.0008C111.964 42.078 111.379 43.9777 111.218 43.7591L111.115 43.457C111.038 43.8234 110.877 44.3715 110.651 44.6672C110.348 45.0593 109.95 45.0015 109.641 45.5817C109.525 45.8002 109.003 47.4299 109.086 47.5135L113.181 47.3206C113.691 46.1731 114.431 45.3759 115.661 45.0079C116.233 44.8343 117.715 44.815 118.005 44.41C118.5 43.7205 117.489 41.9558 117.908 41.0864L117.502 40.8613C117.386 40.1156 117.709 39.2526 117.611 38.5374C117.566 38.2159 117.347 38.1002 117.302 37.7321C117.193 36.8498 117.238 35.0031 117.302 34.0758C117.347 33.3863 117.341 32.7547 118.224 32.909C118.236 32.909 118.127 32.684 118.089 32.639H118.095ZM102.603 33.9199L102.7 32.8061C102.578 32.8447 102.32 33.1999 102.312 33.2834C102.299 33.3992 102.455 33.4827 102.462 33.5727C102.462 33.6435 102.312 33.7206 102.34 33.8299C102.372 33.9601 102.558 34.0758 102.597 34.2879C102.7 34.8151 102.539 35.6846 102.597 36.2005C102.655 36.7148 103.021 37.2243 102.899 37.7836L103.099 37.6807L103.201 38.0873L103.304 37.0764L103.002 37.3786L103.099 35.961L102.996 36.3676C102.436 35.9739 103.311 35.4982 103.201 34.9501L102.899 35.0546L103.002 33.8363L102.597 33.9392V33.9199H102.603ZM87.0795 35.241C87.459 35.0289 87.4911 34.9372 87.7677 34.7315C88.2629 34.3651 88.824 34.1465 88.9012 33.412C88.3336 33.4892 88.4639 33.817 88.2436 34.1208C87.8384 34.6801 87.4204 34.3972 87.0795 35.2346C87.0216 35.2667 86.9043 35.2474 86.8207 35.3246C86.6213 35.511 86.4412 36.6312 86.4734 36.9591L86.8271 36.2519C86.84 35.8453 86.93 35.5946 87.0795 35.2346V35.241ZM147.848 34.0244C147.649 33.9922 147.449 34.3394 147.347 34.4808C147.295 34.5515 147.019 34.9115 147.038 34.9308L147.848 34.6287L147.546 34.5258L147.848 34.0179V34.0244ZM132.324 37.07C132.389 36.9977 132.427 35.4146 132.125 35.3439C132.144 35.8646 132.125 36.3869 132.125 36.9141C132.125 37.1214 132.125 37.0828 132.331 37.07H132.324ZM103.619 35.646C103.33 35.5946 103.452 35.7103 103.401 35.8775C103.317 36.1812 103.195 36.6119 103.465 36.8562C103.639 36.5155 103.536 36.0333 103.613 35.6396L103.619 35.646ZM103.718 40.7135C103.718 40.5271 103.827 40.3342 103.827 40.1542C103.827 39.4647 103.75 38.5052 103.827 37.8222C103.865 37.4171 104.264 36.8884 103.981 36.5541L103.51 38.1709H103.214L103.311 38.3766L102.931 38.5309C103.066 38.7045 102.861 39.1754 103.208 39.0918L103.311 38.4859L103.214 40.6171L103.465 40.0111L103.718 40.7199V40.7135ZM132.858 37.5586L132.935 37.2693C132.53 37.6036 132.318 38.5566 132.935 38.7881L133.143 38.2802L132.839 38.3831L133.046 37.6229L132.858 37.5586ZM154.14 39.9083C154.712 39.7283 154.32 37.43 153.836 37.88C153.739 38.0616 154.641 38.9424 154.043 38.6916L154.146 39.9083H154.14ZM132.935 40.3149C133.143 40.2699 133.104 40.1028 133.136 39.9597C133.239 39.4711 133.336 38.9809 133.439 38.4924C133.124 38.7045 133.239 39.1111 132.82 39.2718L132.929 40.3213L132.935 40.3149ZM104.329 38.9938H104.129C104.316 39.4968 104.258 40.1028 104.129 40.6171C104.399 40.6621 104.309 40.5721 104.361 40.3985C104.502 39.9211 104.605 39.4261 104.329 38.9938ZM162.259 44.2686C162.052 43.817 162.298 42.9153 162.058 42.5875C161.737 42.1375 161.094 42.2789 160.623 42.1953C159.947 42.0716 159.452 41.2744 159.412 42.6453L159.11 42.446C159.303 43.7334 158.499 45.0208 159.02 46.239C159.277 46.8369 160.34 47.9121 159.303 48.473C158.008 49.1737 156.187 47.5521 155.711 46.4062C155.524 46.4062 155.267 47.5907 154.744 47.0105L154.236 48.428L157.346 48.7944C157.79 48.8394 158.364 48.7237 158.756 48.7302C159.405 48.743 160.057 48.9166 160.719 48.8202C160.777 47.9185 161.685 47.4878 162.388 47.0876C162.587 46.9719 163.095 46.8562 163.166 46.7276C163.513 46.1153 162.433 44.7765 162.452 44.0677L162.253 44.2686H162.259ZM132.736 42.033C132.466 41.9687 132.472 42.2982 132.331 42.3818C132.267 42.4203 132.131 42.3303 131.971 42.4268C131.707 42.5875 131.39 43.0825 131.21 43.3477C131.307 43.4312 132.215 42.6968 132.331 42.5875C132.421 42.5039 132.839 42.1375 132.736 42.0266V42.033ZM139.323 42.033H139.124C139.124 42.2467 138.912 42.446 138.725 42.3175C138.68 42.2853 138.783 42.0844 138.616 42.131C138.19 43.6563 137.154 44.3136 135.809 44.9565C135.055 45.3181 133.503 45.6652 133.117 46.419C132.923 46.7919 132.95 47.2306 132.672 47.5971C132.414 47.9442 132.022 47.9507 131.816 48.3123C132.762 48.7494 132.832 47.8671 133.368 47.4299C133.522 47.3014 133.799 47.2821 133.921 47.1647C134.069 47.0233 134.14 46.5604 134.268 46.3483C134.707 45.6202 135.537 45.5881 136.22 45.2538C137.069 44.8408 137.823 44.3457 138.466 43.6498C138.622 43.4827 138.757 43.2577 138.828 43.0375C138.931 42.9668 139.201 43.3862 139.124 42.8318L139.426 43.3927C138.757 43.6241 139.735 44.7379 139.529 45.0593C139.111 44.8472 139.105 45.8324 138.97 46.1731C138.725 46.8047 138.241 47.3592 138.312 48.105C139.079 47.6678 140.18 47.9571 141.055 47.9507C141.235 47.7964 141.372 47.5971 141.565 47.4557C141.854 47.2435 142.949 46.7083 142.956 46.4576C142.956 46.1876 142.626 44.8472 142.472 44.6093C142.131 44.0806 141.404 43.9841 141.049 43.5984C140.521 43.0246 140.721 42.4396 139.677 42.2275L139.581 42.4268L139.323 42.0201V42.033ZM169.76 44.7765L167.938 42.6453C167.906 43.1018 167.893 43.6563 167.823 44.1063C167.771 44.4229 167.544 44.8279 167.531 45.0336C167.519 45.2795 167.705 45.6074 167.628 45.8902L167.326 45.5881C167.261 46.4319 167.9 47.184 167.178 47.925L166.211 48.7302H171.62C171.878 47.8928 172.96 47.8285 173.095 46.9783C172.728 46.0703 171.955 46.0317 171.254 45.6652C170.752 45.4017 170.326 44.8729 169.863 44.6222C169.683 44.5257 169.786 44.6543 169.76 44.7765ZM153.122 43.862C152.665 43.8748 152.71 44.5322 152.562 44.77C152.466 44.9243 152.156 44.9115 152.214 45.1831C152.46 45.4145 153.206 43.9455 153.128 43.862H153.122ZM117.006 46.2969C116.156 46.2004 116.194 46.7597 115.892 47.3078L117.006 46.2969ZM98.6432 46.7019C97.9598 46.8433 97.1238 47.4492 97.2267 48.2207L97.902 47.2033L98.7461 47.004L98.6432 46.7019ZM99.9632 47.004C99.3699 47.0233 98.6303 47.6099 98.5467 48.2207C98.7911 48.0407 98.9133 47.7578 99.1513 47.5585C99.3892 47.3592 99.8024 47.2821 99.9697 47.004H99.9632ZM101.283 47.1069H100.677C100.87 47.5264 100.677 47.3464 100.536 47.5199C100.33 47.7771 100.124 48.0728 100.169 48.428L101.283 47.1069ZM143.489 47.4106C143.155 47.2949 142.246 48.2866 142.375 48.4216C142.795 48.0857 143.219 47.8928 143.489 47.4106ZM91.239 48.428L88.9077 48.3251C89.2164 48.7559 89.6859 48.5566 90.054 48.563C90.247 48.563 90.4335 48.6401 90.6779 48.6273C90.7872 48.6273 91.2262 48.5759 91.239 48.4216V48.428ZM110.316 48.6273C109.319 48.473 108.211 48.518 107.219 48.7302C107.046 48.7687 106.917 48.6144 106.969 48.9294C107.123 48.8587 107.245 48.8266 107.419 48.8202C108.205 48.8073 109.228 48.8909 109.975 48.8202C110.13 48.8073 110.271 48.8202 110.316 48.6273ZM141.764 49.3361H139.987C139.915 49.3361 139.568 49.148 139.529 49.4389C140.148 49.3425 140.817 49.5482 141.404 49.5482C141.623 49.5482 141.822 49.6318 141.764 49.3425V49.3361ZM147.141 49.9468H148.712C148.808 49.9468 149.13 50.2554 149.065 49.8439C148.474 49.7411 147.887 49.7668 147.289 49.7475C147.083 49.7411 147.128 49.7475 147.134 49.9468H147.141ZM116.505 50.3534H114.727C114.727 50.3534 114.566 50.4884 114.572 50.5527H115.037L116.505 50.3534ZM158.402 51.0606C158.428 51.3258 158.402 51.2213 158.248 51.2663C157.764 51.4093 156.664 51.4543 156.122 51.4672C153.823 51.5315 151.551 51.157 149.265 51.2084C149.213 51.0027 149.413 51.0349 149.548 50.9899C150.128 50.8034 151.384 50.7841 152.04 50.7906C153.225 50.8034 154.41 51.0477 155.614 51.0606C156.515 51.067 157.481 50.7841 158.402 51.0606ZM135.17 51.2663L135.112 51.5829C134.894 51.7436 132.041 51.7758 131.572 51.7758C131.384 51.7758 131.178 51.6729 130.966 51.6729C129.716 51.6536 128.474 51.8208 127.256 51.4736C127.4 51.2149 127.946 51.1892 128.216 51.1634C130.464 50.9899 132.897 51.4286 135.17 51.2663ZM90.6329 49.8439C89.1392 49.7861 87.6133 49.9211 86.1196 49.8439C85.4942 49.8118 84.5166 49.7154 83.8976 49.6318C83.7883 49.6189 83.4474 49.5675 83.5374 49.3875C83.6661 49.1802 83.7818 49.2525 83.9619 49.2589C85.3334 49.3039 86.692 49.2123 88.0571 49.2252C88.5411 49.2252 89.8097 49.3489 90.2663 49.4582C90.4399 49.5032 90.6843 49.6189 90.6393 49.8439H90.6329ZM126.748 51.3643C127.006 51.5829 126.176 51.6665 126.092 51.6729C124.759 51.7758 122.769 51.7436 121.417 51.6729C120.877 51.6408 120.27 51.5379 119.749 51.4158C119.749 51.247 121.282 51.0541 121.52 51.0541C121.901 51.0541 122.216 51.1634 122.531 51.1634C123.948 51.1634 125.351 51.0927 126.748 51.3643ZM148.358 51.2663L143.747 51.3708C143.303 51.1442 142.394 51.5251 142.472 50.8613C142.994 50.8806 143.521 50.7649 144.036 50.752C144.867 50.7327 147.424 50.7327 148.093 50.9641C148.26 51.022 148.39 51.0413 148.351 51.2599H148.358V51.2663ZM106.459 51.7693C106.472 52.0072 106.493 51.9494 106.305 51.9686C104.772 52.1615 103.439 52.0008 101.946 51.9686C100.799 51.9429 99.6802 52.1422 98.5403 51.8208L102.34 51.5636L106.453 51.7693H106.459ZM141.055 51.2663C141.248 51.4608 140.566 51.6279 140.476 51.6472C139.413 51.8722 137.232 51.8722 136.137 51.7693C135.918 51.7501 135.395 51.6086 135.809 51.4415C136.008 51.3579 136.51 51.2936 136.748 51.2663C137.244 51.2149 137.958 51.1763 138.466 51.157C138.841 51.1442 140.92 51.1249 141.061 51.2663H141.055ZM94.4901 50.6556C94.831 50.9384 93.2665 51.0541 93.125 51.067C92.7006 51.0927 88.4124 51.1184 88.406 50.8099C89.2485 50.5206 90.292 50.6877 91.2004 50.662C91.4384 50.6556 91.6635 50.5527 91.9015 50.5527C92.7713 50.5398 93.6331 50.5784 94.4901 50.6556ZM170.881 50.4563C171.048 50.5848 170.868 50.6427 170.733 50.6556C170.332 50.707 169.644 50.6941 169.207 50.7006C168.054 50.707 166.573 50.7456 165.446 50.662C165.266 50.6491 165.118 50.6877 164.996 50.5077C164.996 50.2618 166.663 50.1975 166.966 50.1461L170.881 50.4563ZM114.167 51.6729C112.995 51.7179 111.514 51.9172 110.355 51.7822C110.149 51.7565 109.975 51.7372 110.007 51.4736C110.265 51.4801 110.509 51.3772 110.768 51.3643C111.572 51.3193 113.066 51.2792 113.82 51.3643C114.025 51.3901 114.199 51.4093 114.167 51.6729ZM84.4973 48.6273C84.5745 48.6466 84.8318 48.8202 84.851 48.9294C83.6146 48.9873 82.3332 49.103 81.1482 48.8266L81.2511 48.6209C82.1852 48.7559 83.6403 48.4409 84.4973 48.6209V48.6273ZM118.937 51.3708C118.449 51.8658 117.611 51.5701 117.064 51.5701C116.723 51.5701 116.408 51.6793 116.149 51.6793C115.809 51.6793 115.378 51.4865 114.985 51.5765C114.817 51.4543 114.985 51.3901 115.133 51.3772C115.809 51.2936 116.756 51.3901 117.469 51.3772C117.947 51.3772 118.404 51.2084 118.937 51.3772V51.3708ZM107.014 51.7693C106.93 51.7436 106.827 51.5765 106.859 51.4672C106.988 51.2872 109.093 51.3322 109.396 51.5122C109.564 51.6151 109.384 51.7693 109.345 51.7693H107.014ZM121.166 50.4498C121.423 49.9147 123.574 50.1204 123.6 50.5013C123.394 50.8163 123.091 50.5398 122.84 50.5527C122.248 50.5784 121.796 50.752 121.166 50.4498ZM162.052 51.1634C161.312 51.1634 160.545 51.3579 159.819 51.112L161.595 50.9513L162.046 51.157L162.052 51.1634ZM80.6915 48.6273C80.4214 49.0644 79.4551 49.0323 79.0692 48.7752C79.5709 48.5309 80.1513 48.6466 80.6915 48.6273ZM178.079 49.7475C177.796 50.0947 177.074 50.1204 176.759 49.7989C177.151 49.5482 177.655 49.6254 178.079 49.7475ZM12.8901 97.4602V97.0471C14.7456 96.7 15.1443 96.4235 14.7263 95.1683C14.3131 93.8408 13.5542 91.6132 12.6393 89.0963H6.27222C5.58889 91.0539 4.9972 92.6563 4.53253 94.1381C3.81864 96.3207 4.26241 96.5585 6.77387 97.0471V97.4602H0V97.0471C1.86028 96.7192 2.38283 96.4621 3.56782 93.4615L10.2565 76.1729L10.7855 76.0958C12.7872 81.9299 14.8806 87.7624 17.0303 93.6929C18.0545 96.5457 18.4276 96.6035 20.4438 97.0471V97.4602H12.8901ZM9.53616 80.1138C8.51196 82.8363 7.58423 85.5284 6.60665 88.1497H12.3306L9.53616 80.1138ZM32.7358 80.8932C32.1361 78.5612 31.0669 76.7708 28.221 76.7708C25.8912 76.7708 24.8027 78.4905 24.8027 80.4159C24.8027 82.8106 26.142 83.8087 28.6985 85.3162C31.2019 86.7965 33.9706 88.4326 33.9706 91.8896C33.9706 95.3483 31.0862 97.9423 27.2241 97.9423C25.4587 97.9423 23.7077 97.4344 22.5999 97.0343C22.407 96.2114 21.9246 93.2043 21.8668 92.6113L22.3298 92.5148C22.9086 94.6267 24.4361 97.2544 27.6872 97.2544C30.3337 97.2544 31.4544 95.2133 31.4544 93.0549C31.4544 90.6601 29.8626 89.2892 27.61 87.9038C25.1114 86.3722 22.5228 84.8068 22.5228 81.549C22.5228 78.4712 25.0278 76.0765 28.7821 76.0765C30.7453 76.0765 32.0075 76.4622 32.7101 76.5715C32.8387 77.711 33.0059 79.27 33.231 80.7888L32.7422 80.8868H32.7358V80.8932ZM44.2159 76.5329C46.4685 76.5329 48.1824 76.9653 49.3996 77.8476C50.673 78.8264 51.5042 80.2809 51.5042 82.3285C51.5042 86.6936 47.7692 88.7347 44.7368 88.7347C44.4217 88.7347 44.113 88.6769 43.8686 88.619L41.7494 88.124V93.9051C41.7494 96.4814 42.0453 96.6807 44.5825 97.06V97.473H36.3985V97.06C38.9421 96.7 39.1608 96.43 39.1608 93.8279V80.1909C39.1608 77.4796 38.9485 77.3124 36.45 76.9524V76.5394H44.2159V76.5329ZM41.7494 87.4924C42.1868 87.6724 43.0373 87.7881 43.9329 87.7881C45.9025 87.7881 48.6262 86.8543 48.6262 82.3606C48.6262 78.7412 46.5585 77.1967 43.8026 77.1967C42.9859 77.1967 42.3154 77.3446 42.1224 77.5246C41.8588 77.7432 41.7494 78.2012 41.7494 79.2957V87.4924ZM69.0957 92.8041C68.9349 93.8793 68.3545 96.5328 68.1101 97.4666H53.2938V97.0535C56.114 96.6678 56.3133 96.4557 56.3133 93.7701V80.3838C56.3133 77.5889 56.204 77.3896 53.7392 76.946V76.5329H62.965C65.8045 76.5329 66.8222 76.5329 67.3689 76.4686C67.3689 77.6146 67.5056 79.8823 67.6149 80.8997L67.1502 80.9704C66.9187 80.1395 66.4749 78.9743 66.081 78.3748C65.4765 77.5053 65.0327 77.4217 63.1322 77.4217H59.8233C58.9856 77.4217 58.9148 77.5246 58.9148 78.3812V85.8884H62.7528C65.007 85.8884 65.2642 85.4191 65.6565 83.288H66.0939V89.3985H65.6565C65.1292 87.2095 64.9234 86.7965 62.8042 86.7965H58.9148V94.286C58.9148 96.4621 59.7139 96.5907 61.5549 96.5907H64.5101C66.1212 96.5907 66.5714 96.3078 67.3753 95.149C67.8786 94.4531 68.2838 93.6222 68.6761 92.6948L69.1086 92.7913L69.0957 92.8041ZM92.1973 76.946C89.9383 77.4474 89.6923 77.8283 89.628 80.0173C89.5958 80.8804 89.5315 81.504 89.5315 84.4017V97.833H88.9655L74.511 80.1009V89.1606C74.511 92.232 74.5688 93.2236 74.6074 94.2538C74.6846 96.1792 75.1412 96.6292 77.7363 97.0471V97.4602H70.4286V97.0471C72.8163 96.5328 73.2874 96.2114 73.3646 94.2474C73.4032 93.3522 73.4739 92.1484 73.4739 89.1606V79.8229C73.4739 79.225 73.3324 78.7991 73.0092 78.4069C72.2246 77.4153 71.329 77.1581 70.099 76.9331V76.5201H74.9033L88.5282 92.952V84.3889C88.5282 81.4911 88.4832 80.9704 88.4253 79.908C88.3015 77.8155 87.8256 77.2546 85.1276 76.9267V76.5136H92.1909V76.946H92.1973ZM117.386 97.4602V97.0471C119.891 96.5971 119.968 96.3207 120 93.1207L120.097 78.9743C117.386 84.8068 112.242 96.0426 111.701 97.4537H111.353C110.961 96.3657 107.309 87.5567 103.827 79.3536C103.401 91.1825 103.414 93.1915 103.42 94.466C103.433 96.1985 103.93 96.7128 106.382 97.0471V97.4602H99.2928V97.0471C101.521 96.7514 101.946 96.1792 102.113 94.5045C102.248 93.2043 102.352 91.3882 102.989 79.3728C103.047 78.1241 102.893 77.2481 100.015 76.9331V76.5201H105.256L112.558 93.0291L120.439 76.5201H125.57V76.9331C122.795 77.3639 122.57 77.666 122.57 80.6409L122.647 93.1207C122.679 96.3657 122.943 96.6164 125.57 97.0471V97.4602H117.386ZM148.163 76.946C145.834 77.3124 145.724 77.899 145.628 79.5078C145.589 80.313 145.499 81.3754 145.499 84.2089V88.4326C145.499 91.4975 145.182 94.0143 143.335 95.9205C141.899 97.3766 139.883 97.9487 137.656 97.9487C135.698 97.9487 133.747 97.473 132.466 96.4492C130.471 94.8453 129.852 92.8234 129.852 89.1413V80.5059C129.852 77.6146 129.659 77.3639 127.269 76.9524V76.5394H135.022V76.9524C132.62 77.4024 132.421 77.6146 132.421 80.5059V88.8954C132.421 93.7186 134.262 96.5457 138.732 96.5457C143.547 96.5457 144.501 93.5643 144.501 88.4519V84.1896C144.501 81.3818 144.462 80.3838 144.391 79.4114C144.288 77.7817 144.01 77.2546 141.333 76.9524V76.5394H148.17V76.9524L148.163 76.946ZM169.019 97.6337C168.781 97.6337 167.983 97.6337 167.731 97.608C164.821 97.4473 164.107 97.0471 162.851 95.3162C161.775 93.7893 160.327 91.3496 159.219 89.4114C158.409 88.0083 158.027 87.7752 156.482 87.7752H155.286V93.8151C155.286 96.3335 155.531 96.6742 158.074 97.0535V97.4666H149.948V97.0535C152.432 96.6421 152.71 96.3978 152.71 93.8151V80.1266C152.71 77.6081 152.492 77.3317 149.948 76.946V76.5329H157.815C160.089 76.5329 161.801 76.8753 162.993 77.7303C164.165 78.5162 164.949 79.9402 164.949 81.6647C164.949 84.4146 163.05 86.1793 160.836 87.1452C161.422 88.2011 162.948 90.7373 163.901 92.187C165.022 93.9115 165.781 95.0317 166.515 95.8433C167.306 96.7128 167.842 96.9764 169.122 97.2352L169.025 97.6337H169.019ZM157.011 87.1131C158.608 87.1131 159.555 87.0359 160.43 86.3786C161.647 85.4898 162.058 84.2024 162.058 82.2835C162.058 78.7348 160.14 77.1967 157.564 77.1967C156.463 77.1967 155.91 77.3124 155.666 77.4731C155.389 77.6596 155.286 77.9376 155.286 78.8971V87.1131H157.011ZM181.84 97.4602V97.0471C183.694 96.7 184.092 96.4235 183.674 95.1683C183.263 93.8408 182.502 91.6132 181.587 89.0963H175.22C174.537 91.0539 173.945 92.6563 173.482 94.1381C172.767 96.3207 173.21 96.5585 175.722 97.0471V97.4602H168.948V97.0471C170.81 96.7192 171.331 96.4621 172.516 93.4615L179.206 76.1729L179.733 76.0958C181.737 81.9299 183.829 87.7624 185.98 93.6929C187.003 96.5457 187.377 96.6035 189.392 97.0471V97.4602H181.84ZM178.484 80.1138C177.46 82.8363 176.534 85.5284 175.555 88.1497H181.279L178.484 80.1138ZM201.69 80.8932C201.091 78.5612 200.023 76.7708 197.177 76.7708C194.846 76.7708 193.757 78.4905 193.757 80.4159C193.757 82.8106 195.096 83.8087 197.653 85.3162C200.158 86.7965 202.927 88.4326 202.927 91.8896C202.927 95.3483 200.042 97.9423 196.179 97.9423C194.415 97.9423 192.662 97.4344 191.556 97.0343C191.361 96.2114 190.879 93.2043 190.821 92.6113L191.284 92.5148C191.865 94.6267 193.391 97.2544 196.642 97.2544C199.288 97.2544 200.409 95.2133 200.409 93.0549C200.409 90.6601 198.819 89.2892 196.564 87.9038C194.066 86.3722 191.479 84.8068 191.479 81.549C191.479 78.4712 193.982 76.0765 197.737 76.0765C199.7 76.0765 200.962 76.4622 201.665 76.5715C201.793 77.711 201.96 79.27 202.185 80.7888L201.697 80.8868L201.69 80.8932ZM205.347 76.5329H213.479V76.946C210.865 77.4217 210.685 77.6146 210.685 80.5831V86.4493C211.149 86.2693 211.805 85.8241 212.489 85.1748C214.323 83.4872 217.073 80.6216 218.541 79C219.648 77.7303 219.391 77.396 217.949 77.081L217.195 76.946V76.5329H224.271V76.946C221.901 77.2546 221.303 77.6339 219.299 79.5336C217.962 80.8466 215.437 83.3072 213.151 85.567C215.662 88.5161 219.261 92.6306 220.962 94.4145C222.951 96.4878 223.324 96.7707 225.327 97.0535V97.4666H220.131C217.413 94.4338 214.323 90.8144 211.895 88.0083C211.265 87.2545 210.948 86.9974 210.685 86.8736V93.3136C210.685 96.4878 210.942 96.52 213.479 97.0535V97.4666H205.347V97.0535C207.89 96.6357 208.109 96.4942 208.109 93.3136V80.6345C208.109 77.5374 207.897 77.3381 205.347 76.946V76.5329ZM225.855 97.4602V97.0471C228.373 96.6035 228.617 96.3271 228.617 93.7508V80.2552C228.617 77.5246 228.392 77.3446 225.855 76.9396V76.5265H234V76.9396C231.437 77.306 231.206 77.5181 231.206 80.2552V93.7443C231.206 96.3078 231.424 96.5714 234 97.0471V97.4602H225.855ZM90.0991 125.128L92.0558 127.749C92.1073 127.833 92.1201 127.916 92.0044 127.916H91.3033C91.2133 127.916 91.1602 127.897 91.1088 127.814L89.1713 125.173H87.4075V127.82C87.4075 127.871 87.3561 127.91 87.3046 127.91H86.6727C86.6213 127.91 86.5827 127.871 86.5827 127.82V120.994C86.5827 120.943 86.6213 120.891 86.6727 120.891H89.4543C90.1248 120.891 90.6908 120.975 91.1667 121.29C91.6699 121.631 91.9915 122.217 91.9915 123.035C91.9915 123.796 91.6828 124.355 91.1812 124.717C90.8515 124.961 90.5107 125.077 90.0991 125.128ZM87.4075 121.592V124.477H89.2935C89.8097 124.477 90.2084 124.438 90.5493 124.239C90.9094 124.033 91.1538 123.653 91.1538 123.042C91.1538 122.429 90.9159 122.05 90.5686 121.838C90.2277 121.631 89.8289 121.592 89.3643 121.592H87.4075ZM100.15 120.891C100.201 120.891 100.24 120.943 100.24 120.994V121.521C100.24 121.586 100.201 121.624 100.15 121.624H96.0481V124.04H99.6159C99.6674 124.04 99.706 124.078 99.706 124.13V124.663C99.706 124.717 99.6674 124.755 99.6159 124.755H96.0481V127.176H100.15C100.201 127.176 100.24 127.227 100.24 127.278V127.814C100.24 127.865 100.201 127.904 100.15 127.904H95.3133C95.2619 127.904 95.2233 127.865 95.2233 127.814V120.988C95.2233 120.936 95.2619 120.885 95.3133 120.885H100.15V120.891ZM103.581 127.807C103.562 127.878 103.51 127.91 103.427 127.91H102.809C102.745 127.91 102.726 127.878 102.726 127.839C102.726 127.82 102.726 127.788 102.745 127.749L105.417 120.975C105.449 120.891 105.488 120.859 105.571 120.859H106.227C106.311 120.859 106.35 120.891 106.382 120.975L109.041 127.749C109.041 127.749 109.073 127.82 109.073 127.839C109.073 127.878 109.041 127.91 108.97 127.91H108.34C108.257 127.91 108.205 127.878 108.186 127.807L107.547 126.177H104.219L103.581 127.807ZM105.887 121.864L104.431 125.514H107.335L105.88 121.864H105.887ZM112.68 120.891C112.731 120.891 112.783 120.943 112.783 120.994V127.176H116.357C116.408 127.176 116.447 127.227 116.447 127.278V127.814C116.447 127.865 116.408 127.904 116.357 127.904H112.048C111.996 127.904 111.958 127.865 111.958 127.814V120.988C111.958 120.936 111.996 120.885 112.048 120.885H112.68V120.891ZM129.112 120.891C129.163 120.891 129.202 120.943 129.202 120.994V121.521C129.202 121.586 129.163 121.624 129.112 121.624H125.01V124.04H128.577C128.628 124.04 128.667 124.078 128.667 124.13V124.663C128.667 124.717 128.628 124.755 128.577 124.755H125.01V127.176H129.112C129.163 127.176 129.202 127.227 129.202 127.278V127.814C129.202 127.865 129.163 127.904 129.112 127.904H124.276C124.224 127.904 124.185 127.865 124.185 127.814V120.988C124.185 120.936 124.224 120.885 124.276 120.885H129.112V120.891ZM132.106 127.343C132.041 127.311 132.022 127.259 132.054 127.201L132.312 126.672C132.331 126.621 132.376 126.602 132.447 126.64C132.878 126.918 133.516 127.311 134.456 127.311C134.952 127.311 135.344 127.188 135.608 126.989C135.918 126.751 136.072 126.402 136.072 125.997C136.072 125.462 135.691 125.141 135.177 124.922C134.572 124.651 133.876 124.561 133.149 124.201C132.543 123.905 132.099 123.46 132.099 122.675C132.099 122.121 132.305 121.658 132.704 121.322C133.13 120.981 133.754 120.789 134.591 120.789C135.428 120.789 136.156 121.014 136.632 121.284C136.696 121.322 136.703 121.367 136.67 121.425L136.426 121.941C136.394 122.005 136.342 122.024 136.285 121.979C135.77 121.684 135.138 121.496 134.553 121.496C133.966 121.496 133.554 121.632 133.297 121.87C133.078 122.063 132.969 122.327 132.969 122.642C132.969 123.158 133.368 123.447 133.985 123.673C134.688 123.931 135.408 124.021 136.059 124.406C136.542 124.683 136.973 125.16 136.973 125.92C136.973 126.602 136.696 127.124 136.233 127.484C135.802 127.826 135.183 128 134.469 128C133.374 128 132.601 127.651 132.106 127.33V127.343ZM145.099 120.891C145.15 120.891 145.189 120.943 145.189 120.994V121.521C145.189 121.586 145.15 121.624 145.099 121.624H142.737V127.82C142.737 127.871 142.697 127.91 142.632 127.91H142.015C141.951 127.91 141.912 127.871 141.912 127.82V121.624H139.548C139.497 121.624 139.458 121.586 139.458 121.521V120.994C139.458 120.943 139.497 120.891 139.548 120.891H145.099ZM147.398 127.807C147.379 127.878 147.327 127.91 147.244 127.91H146.625C146.56 127.91 146.541 127.878 146.541 127.839C146.541 127.82 146.541 127.788 146.56 127.749L149.233 120.975C149.265 120.891 149.303 120.859 149.387 120.859H150.045C150.128 120.859 150.167 120.891 150.199 120.975L152.858 127.749C152.858 127.749 152.89 127.82 152.89 127.839C152.89 127.878 152.858 127.91 152.788 127.91H152.156C152.072 127.91 152.021 127.878 152.001 127.807L151.365 126.177H148.035L147.398 127.807ZM149.704 121.864L148.247 125.514H151.152L149.697 121.864H149.704ZM159.87 120.891C159.922 120.891 159.96 120.943 159.96 120.994V121.521C159.96 121.586 159.922 121.624 159.87 121.624H157.507V127.82C157.507 127.871 157.468 127.91 157.404 127.91H156.786C156.722 127.91 156.683 127.871 156.683 127.82V121.624H154.32C154.268 121.624 154.23 121.586 154.23 121.521V120.994C154.23 120.943 154.268 120.891 154.32 120.891H159.87ZM167.763 120.891C167.816 120.891 167.855 120.943 167.855 120.994V121.521C167.855 121.586 167.816 121.624 167.763 121.624H163.663V124.04H167.229C167.281 124.04 167.319 124.078 167.319 124.13V124.663C167.319 124.717 167.281 124.755 167.229 124.755H163.663V127.176H167.763C167.816 127.176 167.855 127.227 167.855 127.278V127.814C167.855 127.865 167.816 127.904 167.763 127.904H162.928C162.877 127.904 162.838 127.865 162.838 127.814V120.988C162.838 120.936 162.877 120.885 162.928 120.885H167.763V120.891Z" fill="var(--fill-0, black)"/>
</g>
</svg>
